G04 #@! TF.GenerationSoftware,KiCad,Pcbnew,8.0.3*
G04 #@! TF.CreationDate,2024-07-19T17:45:39+03:00*
G04 #@! TF.ProjectId,B-TH09C-Brk-01Mbr-R01,422d5448-3039-4432-9d42-726b2d30314d,rev?*
G04 #@! TF.SameCoordinates,Original*
G04 #@! TF.FileFunction,Legend,Bot*
G04 #@! TF.FilePolarity,Positive*
%FSLAX46Y46*%
G04 Gerber Fmt 4.6, Leading zero omitted, Abs format (unit mm)*
G04 Created by KiCad (PCBNEW 8.0.3) date 2024-07-19 17:45:39*
%MOMM*%
%LPD*%
G01*
G04 APERTURE LIST*
G04 Aperture macros list*
%AMRoundRect*
0 Rectangle with rounded corners*
0 $1 Rounding radius*
0 $2 $3 $4 $5 $6 $7 $8 $9 X,Y pos of 4 corners*
0 Add a 4 corners polygon primitive as box body*
4,1,4,$2,$3,$4,$5,$6,$7,$8,$9,$2,$3,0*
0 Add four circle primitives for the rounded corners*
1,1,$1+$1,$2,$3*
1,1,$1+$1,$4,$5*
1,1,$1+$1,$6,$7*
1,1,$1+$1,$8,$9*
0 Add four rect primitives between the rounded corners*
20,1,$1+$1,$2,$3,$4,$5,0*
20,1,$1+$1,$4,$5,$6,$7,0*
20,1,$1+$1,$6,$7,$8,$9,0*
20,1,$1+$1,$8,$9,$2,$3,0*%
G04 Aperture macros list end*
%ADD10C,0.000000*%
%ADD11C,0.150000*%
%ADD12O,1.950000X1.700000*%
%ADD13RoundRect,0.250000X0.725000X-0.600000X0.725000X0.600000X-0.725000X0.600000X-0.725000X-0.600000X0*%
G04 APERTURE END LIST*
D10*
G36*
X129184287Y-100804120D02*
G01*
X129241703Y-100808908D01*
X129297223Y-100815592D01*
X129350846Y-100824159D01*
X129402567Y-100834598D01*
X129452382Y-100846898D01*
X129500289Y-100861046D01*
X129546282Y-100877032D01*
X129590360Y-100894843D01*
X129632517Y-100914468D01*
X129672751Y-100935895D01*
X129711058Y-100959112D01*
X129747434Y-100984109D01*
X129781875Y-101010873D01*
X129814378Y-101039392D01*
X129844940Y-101069656D01*
X129873556Y-101101652D01*
X129900223Y-101135369D01*
X129924937Y-101170795D01*
X129947695Y-101207919D01*
X129968494Y-101246728D01*
X129987328Y-101287212D01*
X130004196Y-101329359D01*
X130019093Y-101373157D01*
X130032015Y-101418594D01*
X130042959Y-101465659D01*
X130051922Y-101514340D01*
X130058899Y-101564625D01*
X130063887Y-101616504D01*
X130066883Y-101669964D01*
X130067882Y-101724993D01*
X130066883Y-101776710D01*
X130063887Y-101826928D01*
X130058899Y-101875639D01*
X130051922Y-101922834D01*
X130042959Y-101968503D01*
X130032015Y-102012636D01*
X130019093Y-102055224D01*
X130004196Y-102096258D01*
X129987328Y-102135727D01*
X129968494Y-102173624D01*
X129947695Y-102209938D01*
X129924937Y-102244659D01*
X129900223Y-102277779D01*
X129873556Y-102309288D01*
X129844940Y-102339177D01*
X129814378Y-102367435D01*
X129781875Y-102394054D01*
X129747434Y-102419024D01*
X129711058Y-102442335D01*
X129672751Y-102463979D01*
X129632517Y-102483946D01*
X129590360Y-102502226D01*
X129546282Y-102518810D01*
X129500289Y-102533688D01*
X129452382Y-102546852D01*
X129402567Y-102558290D01*
X129350846Y-102567995D01*
X129297223Y-102575957D01*
X129241703Y-102582166D01*
X129184287Y-102586612D01*
X129124981Y-102589287D01*
X129063788Y-102590181D01*
X129063788Y-102590180D01*
X128943987Y-102586568D01*
X128831663Y-102575794D01*
X128778315Y-102567749D01*
X128726849Y-102557950D01*
X128677270Y-102546406D01*
X128629582Y-102533129D01*
X128583789Y-102518132D01*
X128539896Y-102501426D01*
X128497906Y-102483022D01*
X128457825Y-102462932D01*
X128419657Y-102441168D01*
X128383405Y-102417741D01*
X128349075Y-102392663D01*
X128316671Y-102365946D01*
X128286197Y-102337601D01*
X128257657Y-102307639D01*
X128231056Y-102276074D01*
X128206399Y-102242915D01*
X128183689Y-102208175D01*
X128162930Y-102171865D01*
X128144128Y-102133997D01*
X128127287Y-102094583D01*
X128112411Y-102053634D01*
X128099504Y-102011162D01*
X128088571Y-101967178D01*
X128079616Y-101921694D01*
X128072643Y-101874722D01*
X128067657Y-101826274D01*
X128064662Y-101776360D01*
X128063663Y-101724993D01*
X128420850Y-101724993D01*
X128421478Y-101762249D01*
X128423362Y-101798122D01*
X128426501Y-101832627D01*
X128430896Y-101865775D01*
X128436547Y-101897581D01*
X128443454Y-101928056D01*
X128451616Y-101957215D01*
X128461034Y-101985070D01*
X128471708Y-102011635D01*
X128483637Y-102036922D01*
X128496822Y-102060944D01*
X128511263Y-102083715D01*
X128526960Y-102105248D01*
X128543913Y-102125556D01*
X128562121Y-102144651D01*
X128581585Y-102162547D01*
X128602304Y-102179258D01*
X128624280Y-102194795D01*
X128647511Y-102209173D01*
X128671998Y-102222404D01*
X128697741Y-102234502D01*
X128724739Y-102245478D01*
X128752993Y-102255348D01*
X128782503Y-102264123D01*
X128813268Y-102271816D01*
X128845290Y-102278441D01*
X128878567Y-102284012D01*
X128913100Y-102288540D01*
X128985932Y-102294522D01*
X129063788Y-102296493D01*
X129141644Y-102294347D01*
X129214476Y-102287889D01*
X129282286Y-102277081D01*
X129314308Y-102270036D01*
X129345073Y-102261890D01*
X129374583Y-102252640D01*
X129402837Y-102242281D01*
X129429836Y-102230809D01*
X129455578Y-102218219D01*
X129480065Y-102204507D01*
X129503296Y-102189668D01*
X129525272Y-102173699D01*
X129545991Y-102156595D01*
X129565455Y-102138351D01*
X129583664Y-102118963D01*
X129600616Y-102098427D01*
X129616313Y-102076739D01*
X129630754Y-102053894D01*
X129643939Y-102029887D01*
X129655869Y-102004715D01*
X129666543Y-101978373D01*
X129675961Y-101950857D01*
X129684123Y-101922161D01*
X129691030Y-101892283D01*
X129696680Y-101861218D01*
X129701076Y-101828960D01*
X129704215Y-101795506D01*
X129706098Y-101760852D01*
X129706726Y-101724993D01*
X129706076Y-101688963D01*
X129704128Y-101653811D01*
X129700886Y-101619555D01*
X129696355Y-101586211D01*
X129690539Y-101553797D01*
X129683443Y-101522331D01*
X129675071Y-101491830D01*
X129665427Y-101462311D01*
X129654515Y-101433792D01*
X129642341Y-101406291D01*
X129628908Y-101379825D01*
X129614220Y-101354411D01*
X129598283Y-101330066D01*
X129581100Y-101306809D01*
X129562676Y-101284656D01*
X129543015Y-101263625D01*
X129522122Y-101243734D01*
X129500000Y-101225000D01*
X129476655Y-101207440D01*
X129452091Y-101191072D01*
X129426311Y-101175913D01*
X129399320Y-101161981D01*
X129371124Y-101149293D01*
X129341725Y-101137866D01*
X129311129Y-101127718D01*
X129279339Y-101118867D01*
X129246361Y-101111330D01*
X129212198Y-101105124D01*
X129176855Y-101100267D01*
X129140336Y-101096776D01*
X129102645Y-101094668D01*
X129063788Y-101093962D01*
X129024931Y-101094623D01*
X128987240Y-101096601D01*
X128950722Y-101099887D01*
X128915379Y-101104473D01*
X128881216Y-101110349D01*
X128848237Y-101117507D01*
X128816448Y-101125938D01*
X128785852Y-101135634D01*
X128756453Y-101146585D01*
X128728256Y-101158783D01*
X128701266Y-101172220D01*
X128675486Y-101186886D01*
X128650922Y-101202773D01*
X128627576Y-101219873D01*
X128605455Y-101238175D01*
X128584562Y-101257673D01*
X128564901Y-101278356D01*
X128546477Y-101300216D01*
X128529294Y-101323246D01*
X128513356Y-101347435D01*
X128498669Y-101372775D01*
X128485236Y-101399257D01*
X128473062Y-101426873D01*
X128462150Y-101455614D01*
X128452506Y-101485471D01*
X128444134Y-101516436D01*
X128437038Y-101548499D01*
X128431222Y-101581653D01*
X128426691Y-101615888D01*
X128423449Y-101651195D01*
X128421501Y-101687567D01*
X128420850Y-101724993D01*
X128063663Y-101724993D01*
X128064651Y-101670313D01*
X128067613Y-101617158D01*
X128072548Y-101565542D01*
X128079453Y-101515479D01*
X128088325Y-101466982D01*
X128099164Y-101420067D01*
X128111966Y-101374746D01*
X128126729Y-101331032D01*
X128143451Y-101288941D01*
X128162131Y-101248486D01*
X128182765Y-101209681D01*
X128205352Y-101172538D01*
X128229890Y-101137073D01*
X128256375Y-101103299D01*
X128284807Y-101071230D01*
X128315183Y-101040880D01*
X128347500Y-101012262D01*
X128381757Y-100985390D01*
X128417951Y-100960278D01*
X128456081Y-100936941D01*
X128496144Y-100915391D01*
X128538137Y-100895642D01*
X128582059Y-100877709D01*
X128627908Y-100861604D01*
X128675681Y-100847343D01*
X128725376Y-100834938D01*
X128776991Y-100824404D01*
X128830523Y-100815755D01*
X128885971Y-100809003D01*
X128943333Y-100804163D01*
X129002606Y-100801249D01*
X129063788Y-100800275D01*
X129184287Y-100804120D01*
G37*
G36*
X134787535Y-100805434D02*
G01*
X134839025Y-100808933D01*
X134889527Y-100814629D01*
X134938965Y-100822413D01*
X134987263Y-100832173D01*
X135034347Y-100843799D01*
X135080139Y-100857181D01*
X135124566Y-100872208D01*
X135167551Y-100888770D01*
X135209018Y-100906756D01*
X135248893Y-100926056D01*
X135287099Y-100946560D01*
X135323561Y-100968156D01*
X135358203Y-100990735D01*
X135390950Y-101014187D01*
X135421726Y-101038399D01*
X135421726Y-100835993D01*
X135763038Y-100835993D01*
X135763038Y-103137868D01*
X135401882Y-103137868D01*
X135401882Y-102363961D01*
X135370675Y-102388129D01*
X135338072Y-102411455D01*
X135304074Y-102433838D01*
X135268681Y-102455181D01*
X135231892Y-102475384D01*
X135193709Y-102494349D01*
X135154130Y-102511977D01*
X135113155Y-102528169D01*
X135070786Y-102542826D01*
X135027021Y-102555849D01*
X134981861Y-102567140D01*
X134935306Y-102576600D01*
X134887355Y-102584129D01*
X134838010Y-102589630D01*
X134787269Y-102593003D01*
X134735132Y-102594149D01*
X134633317Y-102591104D01*
X134536384Y-102581879D01*
X134444568Y-102566340D01*
X134400651Y-102556161D01*
X134358100Y-102544354D01*
X134316945Y-102530901D01*
X134277214Y-102515787D01*
X134238936Y-102498994D01*
X134202141Y-102480505D01*
X134166857Y-102460304D01*
X134133114Y-102438375D01*
X134100941Y-102414700D01*
X134070366Y-102389263D01*
X134041419Y-102362046D01*
X134014129Y-102333034D01*
X133988525Y-102302210D01*
X133964636Y-102269557D01*
X133942492Y-102235057D01*
X133922120Y-102198696D01*
X133903550Y-102160455D01*
X133886812Y-102120318D01*
X133871934Y-102078268D01*
X133858946Y-102034289D01*
X133847876Y-101988364D01*
X133838753Y-101940476D01*
X133831607Y-101890608D01*
X133826467Y-101838745D01*
X133823362Y-101784868D01*
X133822320Y-101728962D01*
X133822517Y-101717055D01*
X134187444Y-101717055D01*
X134188127Y-101755032D01*
X134190166Y-101791582D01*
X134193543Y-101826719D01*
X134198242Y-101860457D01*
X134204246Y-101892812D01*
X134211538Y-101923798D01*
X134220103Y-101953430D01*
X134229922Y-101981721D01*
X134240979Y-102008687D01*
X134253259Y-102034342D01*
X134266743Y-102058700D01*
X134281415Y-102081777D01*
X134297258Y-102103586D01*
X134314257Y-102124142D01*
X134332393Y-102143461D01*
X134351651Y-102161555D01*
X134372013Y-102178440D01*
X134393463Y-102194130D01*
X134415985Y-102208641D01*
X134439560Y-102221985D01*
X134464174Y-102234179D01*
X134489808Y-102245236D01*
X134516447Y-102255171D01*
X134544074Y-102263998D01*
X134572671Y-102271732D01*
X134602222Y-102278388D01*
X134632711Y-102283981D01*
X134664121Y-102288523D01*
X134729636Y-102294519D01*
X134798633Y-102296492D01*
X134841555Y-102295566D01*
X134883976Y-102292802D01*
X134925863Y-102288225D01*
X134967181Y-102281857D01*
X135007893Y-102273722D01*
X135047966Y-102263843D01*
X135087365Y-102252243D01*
X135126054Y-102238945D01*
X135163999Y-102223973D01*
X135201166Y-102207350D01*
X135237518Y-102189100D01*
X135273022Y-102169244D01*
X135307641Y-102147808D01*
X135341343Y-102124813D01*
X135374091Y-102100284D01*
X135405850Y-102074243D01*
X135405850Y-101316212D01*
X135401882Y-101316212D01*
X135374180Y-101292876D01*
X135344723Y-101270540D01*
X135313614Y-101249274D01*
X135280959Y-101229148D01*
X135246863Y-101210230D01*
X135211429Y-101192592D01*
X135174763Y-101176302D01*
X135136968Y-101161431D01*
X135098151Y-101148048D01*
X135058415Y-101136223D01*
X135017865Y-101126026D01*
X134976606Y-101117527D01*
X134934742Y-101110795D01*
X134892378Y-101105899D01*
X134849619Y-101102911D01*
X134806569Y-101101900D01*
X134767082Y-101102583D01*
X134728981Y-101104622D01*
X134692258Y-101108002D01*
X134656904Y-101112705D01*
X134622910Y-101118717D01*
X134590268Y-101126020D01*
X134558969Y-101134600D01*
X134529004Y-101144440D01*
X134500365Y-101155524D01*
X134473043Y-101167836D01*
X134447028Y-101181360D01*
X134422313Y-101196080D01*
X134398889Y-101211980D01*
X134376746Y-101229045D01*
X134355877Y-101247258D01*
X134336272Y-101266603D01*
X134317923Y-101287064D01*
X134300821Y-101308625D01*
X134284957Y-101331271D01*
X134270322Y-101354985D01*
X134256909Y-101379751D01*
X134244708Y-101405553D01*
X134233710Y-101432376D01*
X134223907Y-101460203D01*
X134215289Y-101489018D01*
X134207849Y-101518806D01*
X134201578Y-101549550D01*
X134196466Y-101581234D01*
X134189688Y-101647360D01*
X134187444Y-101717055D01*
X133822517Y-101717055D01*
X133823249Y-101672884D01*
X133826031Y-101618510D01*
X133830659Y-101565843D01*
X133837125Y-101514889D01*
X133845423Y-101465653D01*
X133855545Y-101418140D01*
X133867483Y-101372355D01*
X133881231Y-101328304D01*
X133896781Y-101285990D01*
X133914126Y-101245420D01*
X133933259Y-101206599D01*
X133954172Y-101169531D01*
X133976859Y-101134221D01*
X134001311Y-101100675D01*
X134027522Y-101068898D01*
X134055484Y-101038895D01*
X134085190Y-101010671D01*
X134116633Y-100984231D01*
X134149806Y-100959580D01*
X134184701Y-100936723D01*
X134221310Y-100915666D01*
X134259628Y-100896413D01*
X134299646Y-100878969D01*
X134341358Y-100863340D01*
X134384755Y-100849531D01*
X134429831Y-100837546D01*
X134476578Y-100827392D01*
X134524990Y-100819072D01*
X134575058Y-100812592D01*
X134626776Y-100807957D01*
X134680137Y-100805173D01*
X134735132Y-100804243D01*
X134787535Y-100805434D01*
G37*
G36*
X124810621Y-101996843D02*
G01*
X124824327Y-101997885D01*
X124837833Y-101999602D01*
X124851123Y-102001975D01*
X124864180Y-102004989D01*
X124876986Y-102008625D01*
X124889526Y-102012868D01*
X124901781Y-102017700D01*
X124913736Y-102023105D01*
X124925372Y-102029065D01*
X124936674Y-102035563D01*
X124947623Y-102042583D01*
X124958204Y-102050107D01*
X124968399Y-102058118D01*
X124978191Y-102066601D01*
X124987564Y-102075537D01*
X124996500Y-102084909D01*
X125004982Y-102094702D01*
X125012994Y-102104897D01*
X125020518Y-102115477D01*
X125027538Y-102126427D01*
X125034036Y-102137729D01*
X125039996Y-102149365D01*
X125045400Y-102161320D01*
X125050233Y-102173575D01*
X125054476Y-102186114D01*
X125058112Y-102198921D01*
X125061126Y-102211978D01*
X125063499Y-102225268D01*
X125065215Y-102238774D01*
X125066257Y-102252479D01*
X125066609Y-102266367D01*
X125066257Y-102280254D01*
X125065215Y-102293960D01*
X125063499Y-102307466D01*
X125061126Y-102320756D01*
X125058112Y-102333813D01*
X125054476Y-102346619D01*
X125050233Y-102359159D01*
X125045400Y-102371414D01*
X125039996Y-102383369D01*
X125034036Y-102395005D01*
X125027538Y-102406307D01*
X125020518Y-102417256D01*
X125012994Y-102427837D01*
X125004982Y-102438032D01*
X124996500Y-102447825D01*
X124987564Y-102457197D01*
X124978191Y-102466133D01*
X124968399Y-102474616D01*
X124958204Y-102482627D01*
X124947623Y-102490151D01*
X124936674Y-102497171D01*
X124925372Y-102503669D01*
X124913736Y-102509629D01*
X124901781Y-102515034D01*
X124889526Y-102519866D01*
X124876986Y-102524109D01*
X124864180Y-102527746D01*
X124851123Y-102530759D01*
X124837833Y-102533132D01*
X124824327Y-102534849D01*
X124810621Y-102535891D01*
X124796734Y-102536242D01*
X124782846Y-102535891D01*
X124769140Y-102534849D01*
X124755634Y-102533132D01*
X124742344Y-102530759D01*
X124729288Y-102527746D01*
X124716481Y-102524109D01*
X124703941Y-102519866D01*
X124691686Y-102515034D01*
X124679731Y-102509629D01*
X124668095Y-102503669D01*
X124656793Y-102497171D01*
X124645844Y-102490151D01*
X124635263Y-102482627D01*
X124625068Y-102474616D01*
X124615275Y-102466133D01*
X124605903Y-102457197D01*
X124596967Y-102447825D01*
X124588485Y-102438032D01*
X124580473Y-102427837D01*
X124572949Y-102417256D01*
X124565929Y-102406307D01*
X124559431Y-102395005D01*
X124553471Y-102383369D01*
X124548066Y-102371414D01*
X124543234Y-102359159D01*
X124538991Y-102346619D01*
X124535355Y-102333813D01*
X124532341Y-102320756D01*
X124529968Y-102307466D01*
X124528252Y-102293960D01*
X124527209Y-102280254D01*
X124526858Y-102266367D01*
X124527209Y-102252479D01*
X124528252Y-102238774D01*
X124529968Y-102225268D01*
X124532341Y-102211978D01*
X124535355Y-102198921D01*
X124538991Y-102186114D01*
X124543234Y-102173575D01*
X124548066Y-102161320D01*
X124553471Y-102149365D01*
X124559431Y-102137729D01*
X124565929Y-102126427D01*
X124572949Y-102115477D01*
X124580473Y-102104897D01*
X124588485Y-102094702D01*
X124596967Y-102084909D01*
X124605903Y-102075537D01*
X124615275Y-102066601D01*
X124625068Y-102058118D01*
X124635263Y-102050107D01*
X124645844Y-102042583D01*
X124656793Y-102035563D01*
X124668095Y-102029065D01*
X124679731Y-102023105D01*
X124691686Y-102017700D01*
X124703941Y-102012868D01*
X124716481Y-102008625D01*
X124729288Y-102004989D01*
X124742344Y-102001975D01*
X124755634Y-101999602D01*
X124769140Y-101997885D01*
X124782846Y-101996843D01*
X124796734Y-101996492D01*
X124810621Y-101996843D01*
G37*
G36*
X140120725Y-101121744D02*
G01*
X138779287Y-101117774D01*
X140077068Y-102312368D01*
X140077068Y-102558430D01*
X138354631Y-102558430D01*
X138354631Y-102276649D01*
X139596850Y-102280618D01*
X138303037Y-101082056D01*
X138303037Y-100835993D01*
X140120725Y-100835993D01*
X140120725Y-101121744D01*
G37*
G36*
X141060151Y-100801772D02*
G01*
X141118958Y-100806126D01*
X141177904Y-100813119D01*
X141236687Y-100822536D01*
X141295005Y-100834162D01*
X141352556Y-100847782D01*
X141409037Y-100863182D01*
X141464146Y-100880145D01*
X141517581Y-100898457D01*
X141569039Y-100917902D01*
X141618218Y-100938266D01*
X141664816Y-100959334D01*
X141708530Y-100980889D01*
X141749059Y-101002718D01*
X141786100Y-101024606D01*
X141819350Y-101046336D01*
X141819350Y-100832022D01*
X142160663Y-100832022D01*
X142160663Y-101978991D01*
X142159880Y-102017408D01*
X142157519Y-102054528D01*
X142153557Y-102090356D01*
X142147974Y-102124896D01*
X142140748Y-102158156D01*
X142131859Y-102190138D01*
X142121286Y-102220848D01*
X142109007Y-102250292D01*
X142095001Y-102278474D01*
X142079248Y-102305400D01*
X142061726Y-102331075D01*
X142042414Y-102355503D01*
X142021291Y-102378690D01*
X141998336Y-102400641D01*
X141973528Y-102421360D01*
X141946846Y-102440854D01*
X141918269Y-102459127D01*
X141887775Y-102476185D01*
X141855344Y-102492031D01*
X141820955Y-102506672D01*
X141784586Y-102520113D01*
X141746216Y-102532358D01*
X141705825Y-102543412D01*
X141663391Y-102553282D01*
X141618893Y-102561971D01*
X141572310Y-102569485D01*
X141523621Y-102575829D01*
X141472806Y-102581009D01*
X141419842Y-102585028D01*
X141364709Y-102587893D01*
X141247850Y-102590179D01*
X141247850Y-102590180D01*
X141129052Y-102587646D01*
X141011834Y-102580320D01*
X140897779Y-102568623D01*
X140788468Y-102552973D01*
X140685482Y-102533788D01*
X140590402Y-102511488D01*
X140546321Y-102499299D01*
X140504810Y-102486489D01*
X140466066Y-102473109D01*
X140430287Y-102459212D01*
X140430287Y-102149649D01*
X140470501Y-102164289D01*
X140512197Y-102178407D01*
X140555277Y-102191943D01*
X140599641Y-102204839D01*
X140645192Y-102217038D01*
X140691830Y-102228481D01*
X140739456Y-102239111D01*
X140787971Y-102248868D01*
X140837277Y-102257695D01*
X140887275Y-102265534D01*
X140937866Y-102272326D01*
X140988951Y-102278013D01*
X141040431Y-102282538D01*
X141092208Y-102285842D01*
X141144183Y-102287868D01*
X141196256Y-102288555D01*
X141277635Y-102287386D01*
X141352247Y-102283850D01*
X141420301Y-102277908D01*
X141482006Y-102269518D01*
X141537573Y-102258640D01*
X141587209Y-102245233D01*
X141631125Y-102229256D01*
X141669529Y-102210669D01*
X141686730Y-102200384D01*
X141702632Y-102189431D01*
X141717260Y-102177805D01*
X141730642Y-102165501D01*
X141742802Y-102152514D01*
X141753768Y-102138839D01*
X141763565Y-102124470D01*
X141772220Y-102109403D01*
X141779759Y-102093633D01*
X141786208Y-102077154D01*
X141795940Y-102042051D01*
X141801625Y-102004052D01*
X141803474Y-101963118D01*
X141803474Y-101808337D01*
X141735114Y-101825592D01*
X141661406Y-101841451D01*
X141582953Y-101855636D01*
X141500361Y-101867868D01*
X141414235Y-101877867D01*
X141325178Y-101885355D01*
X141233796Y-101890052D01*
X141140694Y-101891680D01*
X141051973Y-101890547D01*
X140966154Y-101886897D01*
X140883625Y-101880352D01*
X140804776Y-101870534D01*
X140729997Y-101857065D01*
X140659677Y-101839567D01*
X140594205Y-101817662D01*
X140533971Y-101790973D01*
X140505940Y-101775716D01*
X140479365Y-101759122D01*
X140454294Y-101741142D01*
X140430776Y-101721730D01*
X140408859Y-101700838D01*
X140388593Y-101678419D01*
X140370026Y-101654427D01*
X140353207Y-101628813D01*
X140338184Y-101601530D01*
X140325006Y-101572532D01*
X140313722Y-101541771D01*
X140304380Y-101509200D01*
X140297030Y-101474771D01*
X140291719Y-101438438D01*
X140288497Y-101400153D01*
X140287412Y-101359868D01*
X140287517Y-101355898D01*
X140652537Y-101355898D01*
X140653015Y-101377005D01*
X140654455Y-101397175D01*
X140656864Y-101416427D01*
X140660250Y-101434778D01*
X140664622Y-101452244D01*
X140669987Y-101468845D01*
X140676353Y-101484597D01*
X140683729Y-101499518D01*
X140692123Y-101513625D01*
X140701541Y-101526935D01*
X140711993Y-101539466D01*
X140723487Y-101551236D01*
X140736029Y-101562261D01*
X140749630Y-101572560D01*
X140764295Y-101582149D01*
X140780034Y-101591047D01*
X140796854Y-101599271D01*
X140814763Y-101606837D01*
X140833770Y-101613764D01*
X140853882Y-101620069D01*
X140875107Y-101625769D01*
X140897454Y-101630882D01*
X140920930Y-101635425D01*
X140945543Y-101639416D01*
X140971302Y-101642873D01*
X140998213Y-101645811D01*
X141055529Y-101650206D01*
X141117553Y-101652741D01*
X141184350Y-101653555D01*
X141271329Y-101652307D01*
X141356309Y-101648780D01*
X141438777Y-101643300D01*
X141518221Y-101636192D01*
X141594132Y-101627782D01*
X141665996Y-101618395D01*
X141733302Y-101608356D01*
X141795539Y-101597993D01*
X141795539Y-101292400D01*
X141764237Y-101268365D01*
X141730047Y-101245418D01*
X141693240Y-101223622D01*
X141654090Y-101203040D01*
X141612870Y-101183738D01*
X141569854Y-101165779D01*
X141525315Y-101149227D01*
X141479527Y-101134145D01*
X141432761Y-101120599D01*
X141385292Y-101108651D01*
X141337393Y-101098365D01*
X141289337Y-101089807D01*
X141241397Y-101083039D01*
X141193846Y-101078125D01*
X141146959Y-101075130D01*
X141101007Y-101074118D01*
X141047572Y-101075233D01*
X140997416Y-101078575D01*
X140950562Y-101084138D01*
X140907034Y-101091915D01*
X140866854Y-101101902D01*
X140830046Y-101114092D01*
X140796633Y-101128480D01*
X140766639Y-101145059D01*
X140752931Y-101154169D01*
X140740086Y-101163825D01*
X140728108Y-101174025D01*
X140716999Y-101184770D01*
X140706761Y-101196058D01*
X140697399Y-101207890D01*
X140688915Y-101220263D01*
X140681311Y-101233178D01*
X140674591Y-101246633D01*
X140668757Y-101260629D01*
X140663813Y-101275163D01*
X140659762Y-101290236D01*
X140656605Y-101305847D01*
X140654347Y-101321995D01*
X140652990Y-101338679D01*
X140652537Y-101355898D01*
X140287517Y-101355898D01*
X140288482Y-101319504D01*
X140291642Y-101280986D01*
X140296820Y-101244278D01*
X140303946Y-101209342D01*
X140312947Y-101176141D01*
X140323750Y-101144639D01*
X140336285Y-101114798D01*
X140350478Y-101086582D01*
X140366259Y-101059952D01*
X140383555Y-101034872D01*
X140402294Y-101011306D01*
X140422404Y-100989215D01*
X140443814Y-100968563D01*
X140466451Y-100949314D01*
X140490243Y-100931428D01*
X140515119Y-100914871D01*
X140541007Y-100899604D01*
X140567834Y-100885591D01*
X140595529Y-100872794D01*
X140624019Y-100861177D01*
X140653234Y-100850702D01*
X140683100Y-100841332D01*
X140713546Y-100833030D01*
X140744500Y-100825760D01*
X140807645Y-100814165D01*
X140871958Y-100806250D01*
X140936863Y-100801718D01*
X141001787Y-100800274D01*
X141060151Y-100801772D01*
G37*
G36*
X127165012Y-100838056D02*
G01*
X127249139Y-100844311D01*
X127289147Y-100849041D01*
X127327777Y-100854856D01*
X127365024Y-100861768D01*
X127400881Y-100869790D01*
X127435343Y-100878934D01*
X127468404Y-100889212D01*
X127500058Y-100900637D01*
X127530300Y-100913221D01*
X127559123Y-100926976D01*
X127586521Y-100941916D01*
X127612489Y-100958051D01*
X127637022Y-100975395D01*
X127660113Y-100993960D01*
X127681756Y-101013758D01*
X127701945Y-101034802D01*
X127720676Y-101057103D01*
X127737941Y-101080675D01*
X127753736Y-101105530D01*
X127768054Y-101131679D01*
X127780889Y-101159136D01*
X127792236Y-101187912D01*
X127802089Y-101218021D01*
X127810442Y-101249474D01*
X127817290Y-101282283D01*
X127822626Y-101316462D01*
X127826444Y-101352022D01*
X127828740Y-101388977D01*
X127829506Y-101427337D01*
X127829045Y-101454859D01*
X127827673Y-101481615D01*
X127825412Y-101507606D01*
X127822282Y-101532834D01*
X127818303Y-101557301D01*
X127813496Y-101581008D01*
X127807880Y-101603956D01*
X127801477Y-101626147D01*
X127794306Y-101647582D01*
X127786389Y-101668262D01*
X127777744Y-101688190D01*
X127768394Y-101707366D01*
X127758357Y-101725793D01*
X127747655Y-101743471D01*
X127736307Y-101760402D01*
X127724334Y-101776587D01*
X127711757Y-101792028D01*
X127698596Y-101806727D01*
X127684870Y-101820684D01*
X127670601Y-101833901D01*
X127655809Y-101846381D01*
X127640514Y-101858123D01*
X127624736Y-101869130D01*
X127608497Y-101879403D01*
X127591815Y-101888943D01*
X127574712Y-101897752D01*
X127557208Y-101905832D01*
X127539323Y-101913183D01*
X127521077Y-101919808D01*
X127502492Y-101925708D01*
X127483586Y-101930884D01*
X127464382Y-101935337D01*
X127499697Y-101948278D01*
X127534083Y-101963336D01*
X127567352Y-101980579D01*
X127599319Y-102000078D01*
X127629798Y-102021902D01*
X127658602Y-102046122D01*
X127685546Y-102072806D01*
X127710444Y-102102025D01*
X127733109Y-102133849D01*
X127743546Y-102150759D01*
X127753356Y-102168347D01*
X127762514Y-102186621D01*
X127770998Y-102205589D01*
X127778784Y-102225261D01*
X127785850Y-102245645D01*
X127792171Y-102266749D01*
X127797725Y-102288584D01*
X127802488Y-102311157D01*
X127806438Y-102334476D01*
X127809550Y-102358552D01*
X127811802Y-102383392D01*
X127813170Y-102409005D01*
X127813631Y-102435400D01*
X127812832Y-102475495D01*
X127810444Y-102513940D01*
X127806486Y-102550760D01*
X127800973Y-102585980D01*
X127793922Y-102619625D01*
X127785351Y-102651718D01*
X127775275Y-102682286D01*
X127763712Y-102711352D01*
X127750678Y-102738942D01*
X127736189Y-102765080D01*
X127720263Y-102789790D01*
X127702917Y-102813098D01*
X127684167Y-102835028D01*
X127664029Y-102855605D01*
X127642521Y-102874853D01*
X127619659Y-102892798D01*
X127595459Y-102909464D01*
X127569940Y-102924876D01*
X127543116Y-102939058D01*
X127515006Y-102952035D01*
X127485626Y-102963832D01*
X127454991Y-102974474D01*
X127390029Y-102992389D01*
X127320254Y-103005979D01*
X127245798Y-103015442D01*
X127166796Y-103020975D01*
X127083381Y-103022775D01*
X124368757Y-103022775D01*
X124368757Y-102717181D01*
X127067506Y-102717181D01*
X127110195Y-102716104D01*
X127150424Y-102712840D01*
X127169604Y-102710374D01*
X127188153Y-102707344D01*
X127206068Y-102703745D01*
X127223342Y-102699570D01*
X127239971Y-102694813D01*
X127255949Y-102689470D01*
X127271273Y-102683533D01*
X127285935Y-102676998D01*
X127299932Y-102669857D01*
X127313258Y-102662107D01*
X127325908Y-102653740D01*
X127337878Y-102644751D01*
X127349161Y-102635135D01*
X127359753Y-102624885D01*
X127369649Y-102613995D01*
X127378844Y-102602460D01*
X127387333Y-102590273D01*
X127395110Y-102577430D01*
X127402170Y-102563924D01*
X127408509Y-102549750D01*
X127414121Y-102534901D01*
X127419002Y-102519372D01*
X127423145Y-102503156D01*
X127426547Y-102486250D01*
X127429201Y-102468645D01*
X127431104Y-102450337D01*
X127432249Y-102431320D01*
X127432632Y-102411587D01*
X127432157Y-102388587D01*
X127430744Y-102366461D01*
X127428406Y-102345200D01*
X127425159Y-102324794D01*
X127421016Y-102305234D01*
X127415993Y-102286511D01*
X127410103Y-102268614D01*
X127403362Y-102251535D01*
X127395783Y-102235264D01*
X127387382Y-102219792D01*
X127378173Y-102205109D01*
X127368170Y-102191205D01*
X127357389Y-102178072D01*
X127345842Y-102165700D01*
X127333546Y-102154079D01*
X127320514Y-102143201D01*
X127306762Y-102133054D01*
X127292303Y-102123631D01*
X127277152Y-102114921D01*
X127261324Y-102106916D01*
X127244833Y-102099605D01*
X127227694Y-102092980D01*
X127209922Y-102087030D01*
X127191530Y-102081747D01*
X127152947Y-102073142D01*
X127112062Y-102067089D01*
X127068991Y-102063513D01*
X127023850Y-102062337D01*
X125884819Y-102062337D01*
X125884819Y-101772619D01*
X127095288Y-101772619D01*
X127137843Y-101771672D01*
X127177694Y-101768759D01*
X127214836Y-101763777D01*
X127232389Y-101760477D01*
X127249263Y-101756620D01*
X127265457Y-101752194D01*
X127280969Y-101747185D01*
X127295800Y-101741580D01*
X127309949Y-101735365D01*
X127323415Y-101728529D01*
X127336197Y-101721058D01*
X127348294Y-101712939D01*
X127359706Y-101704158D01*
X127370432Y-101694703D01*
X127380471Y-101684560D01*
X127389823Y-101673717D01*
X127398486Y-101662160D01*
X127406461Y-101649877D01*
X127413746Y-101636854D01*
X127420341Y-101623078D01*
X127426244Y-101608536D01*
X127431456Y-101593215D01*
X127435975Y-101577102D01*
X127439801Y-101560183D01*
X127442933Y-101542447D01*
X127445371Y-101523879D01*
X127447112Y-101504467D01*
X127448158Y-101484197D01*
X127448507Y-101463057D01*
X127448100Y-101441859D01*
X127446885Y-101421423D01*
X127444864Y-101401743D01*
X127442042Y-101382813D01*
X127438424Y-101364627D01*
X127434013Y-101347180D01*
X127428815Y-101330465D01*
X127422834Y-101314476D01*
X127416073Y-101299209D01*
X127408538Y-101284656D01*
X127400233Y-101270813D01*
X127391161Y-101257674D01*
X127381328Y-101245231D01*
X127370738Y-101233481D01*
X127359395Y-101222417D01*
X127347304Y-101212033D01*
X127334468Y-101202323D01*
X127320893Y-101193282D01*
X127306582Y-101184904D01*
X127291540Y-101177182D01*
X127275771Y-101170112D01*
X127259280Y-101163687D01*
X127242071Y-101157901D01*
X127224148Y-101152750D01*
X127186180Y-101144324D01*
X127145409Y-101138363D01*
X127101871Y-101134820D01*
X127055601Y-101133650D01*
X125503820Y-101133650D01*
X125503820Y-102062337D01*
X125122820Y-102062337D01*
X125122820Y-100835993D01*
X127075444Y-100835993D01*
X127165012Y-100838056D01*
G37*
G36*
X132925381Y-102098056D02*
G01*
X132958055Y-102114361D01*
X132992176Y-102130457D01*
X133027890Y-102146227D01*
X133065342Y-102161555D01*
X133104678Y-102176326D01*
X133146043Y-102190422D01*
X133189582Y-102203727D01*
X133235440Y-102216126D01*
X133283764Y-102227501D01*
X133334698Y-102237737D01*
X133388387Y-102246717D01*
X133444978Y-102254325D01*
X133504614Y-102260444D01*
X133567443Y-102264960D01*
X133633608Y-102267754D01*
X133703256Y-102268711D01*
X133703256Y-102586211D01*
X133636961Y-102585202D01*
X133573434Y-102582227D01*
X133512558Y-102577369D01*
X133454217Y-102570708D01*
X133398294Y-102562327D01*
X133344673Y-102552307D01*
X133293239Y-102540728D01*
X133243873Y-102527672D01*
X133196462Y-102513222D01*
X133150887Y-102497457D01*
X133107033Y-102480460D01*
X133064784Y-102462312D01*
X133024023Y-102443094D01*
X132984634Y-102422888D01*
X132946500Y-102401775D01*
X132909506Y-102379836D01*
X132909506Y-102554462D01*
X132905538Y-102558430D01*
X132564225Y-102558430D01*
X132564225Y-100832024D01*
X132925381Y-100832024D01*
X132925381Y-102098056D01*
G37*
G36*
X137224974Y-100804120D02*
G01*
X137282389Y-100808908D01*
X137337910Y-100815592D01*
X137391533Y-100824159D01*
X137443253Y-100834598D01*
X137493069Y-100846898D01*
X137540975Y-100861046D01*
X137586969Y-100877032D01*
X137631046Y-100894843D01*
X137673204Y-100914468D01*
X137713438Y-100935895D01*
X137751744Y-100959112D01*
X137788120Y-100984109D01*
X137822561Y-101010873D01*
X137855064Y-101039392D01*
X137885626Y-101069656D01*
X137914242Y-101101652D01*
X137940909Y-101135369D01*
X137965623Y-101170795D01*
X137988381Y-101207919D01*
X138009179Y-101246728D01*
X138028014Y-101287212D01*
X138044882Y-101329359D01*
X138059778Y-101373157D01*
X138072700Y-101418594D01*
X138083645Y-101465659D01*
X138092607Y-101514340D01*
X138099584Y-101564625D01*
X138104572Y-101616504D01*
X138107568Y-101669964D01*
X138108567Y-101724993D01*
X138107568Y-101776710D01*
X138104572Y-101826928D01*
X138099584Y-101875639D01*
X138092607Y-101922834D01*
X138083645Y-101968503D01*
X138072700Y-102012636D01*
X138059778Y-102055224D01*
X138044881Y-102096258D01*
X138028014Y-102135727D01*
X138009179Y-102173624D01*
X137988381Y-102209938D01*
X137965623Y-102244659D01*
X137940908Y-102277779D01*
X137914241Y-102309288D01*
X137885625Y-102339177D01*
X137855064Y-102367435D01*
X137822561Y-102394054D01*
X137788119Y-102419024D01*
X137751744Y-102442335D01*
X137713437Y-102463979D01*
X137673203Y-102483946D01*
X137631046Y-102502226D01*
X137586968Y-102518810D01*
X137540975Y-102533688D01*
X137493068Y-102546852D01*
X137443253Y-102558290D01*
X137391532Y-102567995D01*
X137337910Y-102575957D01*
X137282389Y-102582166D01*
X137224974Y-102586612D01*
X137165667Y-102589287D01*
X137104474Y-102590181D01*
X137104474Y-102590180D01*
X136984673Y-102586568D01*
X136872349Y-102575794D01*
X136819001Y-102567749D01*
X136767536Y-102557950D01*
X136717956Y-102546406D01*
X136670268Y-102533129D01*
X136624475Y-102518132D01*
X136580582Y-102501426D01*
X136538592Y-102483022D01*
X136498511Y-102462932D01*
X136460343Y-102441168D01*
X136424091Y-102417741D01*
X136389761Y-102392663D01*
X136357357Y-102365946D01*
X136326883Y-102337601D01*
X136298343Y-102307639D01*
X136271742Y-102276074D01*
X136247085Y-102242915D01*
X136224375Y-102208175D01*
X136203616Y-102171865D01*
X136184815Y-102133997D01*
X136167973Y-102094583D01*
X136153097Y-102053634D01*
X136140190Y-102011162D01*
X136129257Y-101967178D01*
X136120302Y-101921694D01*
X136113329Y-101874722D01*
X136108343Y-101826274D01*
X136105348Y-101776360D01*
X136104349Y-101724993D01*
X136461538Y-101724993D01*
X136462166Y-101762249D01*
X136464049Y-101798122D01*
X136467189Y-101832627D01*
X136471584Y-101865775D01*
X136477235Y-101897581D01*
X136484141Y-101928056D01*
X136492303Y-101957215D01*
X136501721Y-101985070D01*
X136512395Y-102011635D01*
X136524325Y-102036922D01*
X136537510Y-102060944D01*
X136551951Y-102083715D01*
X136567647Y-102105248D01*
X136584600Y-102125556D01*
X136602808Y-102144651D01*
X136622272Y-102162547D01*
X136642992Y-102179258D01*
X136664967Y-102194795D01*
X136688198Y-102209173D01*
X136712685Y-102222404D01*
X136738427Y-102234502D01*
X136765426Y-102245478D01*
X136793680Y-102255348D01*
X136823190Y-102264123D01*
X136853955Y-102271816D01*
X136885976Y-102278441D01*
X136919253Y-102284012D01*
X136953786Y-102288540D01*
X137026619Y-102294522D01*
X137104474Y-102296493D01*
X137182330Y-102294347D01*
X137255162Y-102287889D01*
X137322972Y-102277081D01*
X137354993Y-102270036D01*
X137385759Y-102261890D01*
X137415269Y-102252640D01*
X137443523Y-102242281D01*
X137470521Y-102230809D01*
X137496264Y-102218219D01*
X137520751Y-102204507D01*
X137543982Y-102189668D01*
X137565957Y-102173699D01*
X137586677Y-102156595D01*
X137606141Y-102138351D01*
X137624349Y-102118963D01*
X137641302Y-102098427D01*
X137656998Y-102076739D01*
X137671439Y-102053894D01*
X137684625Y-102029887D01*
X137696554Y-102004715D01*
X137707228Y-101978373D01*
X137716646Y-101950857D01*
X137724808Y-101922161D01*
X137731715Y-101892283D01*
X137737366Y-101861218D01*
X137741761Y-101828960D01*
X137744900Y-101795506D01*
X137746784Y-101760852D01*
X137747412Y-101724993D01*
X137746761Y-101688963D01*
X137744813Y-101653811D01*
X137741571Y-101619555D01*
X137737040Y-101586211D01*
X137731225Y-101553797D01*
X137724128Y-101522331D01*
X137715756Y-101491830D01*
X137706112Y-101462311D01*
X137695201Y-101433792D01*
X137683026Y-101406291D01*
X137669593Y-101379825D01*
X137654906Y-101354411D01*
X137638969Y-101330066D01*
X137621786Y-101306809D01*
X137603362Y-101284656D01*
X137583701Y-101263625D01*
X137562807Y-101243734D01*
X137540686Y-101225000D01*
X137517341Y-101207440D01*
X137492776Y-101191072D01*
X137466996Y-101175913D01*
X137440006Y-101161981D01*
X137411809Y-101149293D01*
X137382411Y-101137866D01*
X137351814Y-101127718D01*
X137320025Y-101118867D01*
X137287047Y-101111330D01*
X137252884Y-101105124D01*
X137217541Y-101100267D01*
X137181022Y-101096776D01*
X137143331Y-101094668D01*
X137104474Y-101093962D01*
X137065617Y-101094623D01*
X137027926Y-101096601D01*
X136991408Y-101099887D01*
X136956065Y-101104473D01*
X136921902Y-101110349D01*
X136888923Y-101117507D01*
X136857134Y-101125938D01*
X136826538Y-101135634D01*
X136797139Y-101146585D01*
X136768942Y-101158783D01*
X136741952Y-101172220D01*
X136716173Y-101186886D01*
X136691608Y-101202773D01*
X136668263Y-101219873D01*
X136646141Y-101238175D01*
X136625248Y-101257673D01*
X136605587Y-101278356D01*
X136587163Y-101300216D01*
X136569981Y-101323246D01*
X136554043Y-101347435D01*
X136539356Y-101372775D01*
X136525923Y-101399257D01*
X136513749Y-101426873D01*
X136502837Y-101455614D01*
X136493193Y-101485471D01*
X136484821Y-101516436D01*
X136477725Y-101548499D01*
X136471909Y-101581653D01*
X136467378Y-101615888D01*
X136464137Y-101651195D01*
X136462188Y-101687567D01*
X136461538Y-101724993D01*
X136104349Y-101724993D01*
X136105337Y-101670313D01*
X136108300Y-101617158D01*
X136113234Y-101565542D01*
X136120139Y-101515479D01*
X136129012Y-101466982D01*
X136139850Y-101420067D01*
X136152652Y-101374746D01*
X136167415Y-101331032D01*
X136184137Y-101288941D01*
X136202817Y-101248486D01*
X136223451Y-101209681D01*
X136246038Y-101172538D01*
X136270575Y-101137073D01*
X136297061Y-101103299D01*
X136325493Y-101071230D01*
X136355868Y-101040880D01*
X136388186Y-101012262D01*
X136422443Y-100985390D01*
X136458637Y-100960278D01*
X136496767Y-100936941D01*
X136536829Y-100915391D01*
X136578823Y-100895642D01*
X136622745Y-100877709D01*
X136668594Y-100861604D01*
X136716366Y-100847343D01*
X136766061Y-100834938D01*
X136817676Y-100824404D01*
X136871209Y-100815755D01*
X136926657Y-100809003D01*
X136984019Y-100804163D01*
X137043292Y-100801249D01*
X137104474Y-100800275D01*
X137224974Y-100804120D01*
G37*
G36*
X131082716Y-100801772D02*
G01*
X131141522Y-100806126D01*
X131200468Y-100813119D01*
X131259251Y-100822536D01*
X131317570Y-100834162D01*
X131375120Y-100847782D01*
X131431601Y-100863182D01*
X131486710Y-100880145D01*
X131540145Y-100898457D01*
X131591603Y-100917902D01*
X131640782Y-100938266D01*
X131687380Y-100959334D01*
X131731094Y-100980889D01*
X131771623Y-101002718D01*
X131808663Y-101024606D01*
X131841913Y-101046336D01*
X131841913Y-100832022D01*
X132183226Y-100832022D01*
X132183226Y-101978991D01*
X132182443Y-102017408D01*
X132180081Y-102054528D01*
X132176120Y-102090356D01*
X132170537Y-102124896D01*
X132163311Y-102158156D01*
X132154422Y-102190138D01*
X132143849Y-102220848D01*
X132131570Y-102250292D01*
X132117564Y-102278474D01*
X132101811Y-102305400D01*
X132084289Y-102331075D01*
X132064977Y-102355503D01*
X132043854Y-102378690D01*
X132020899Y-102400641D01*
X131996091Y-102421360D01*
X131969409Y-102440854D01*
X131940832Y-102459127D01*
X131910338Y-102476185D01*
X131877907Y-102492031D01*
X131843518Y-102506672D01*
X131807149Y-102520113D01*
X131768779Y-102532358D01*
X131728388Y-102543412D01*
X131685954Y-102553282D01*
X131641456Y-102561971D01*
X131594873Y-102569485D01*
X131546184Y-102575829D01*
X131495369Y-102581009D01*
X131442405Y-102585028D01*
X131387272Y-102587893D01*
X131270413Y-102590179D01*
X131270413Y-102590180D01*
X131151614Y-102587646D01*
X131034397Y-102580320D01*
X130920342Y-102568623D01*
X130811030Y-102552973D01*
X130708044Y-102533788D01*
X130612965Y-102511488D01*
X130568884Y-102499299D01*
X130527373Y-102486489D01*
X130488629Y-102473109D01*
X130452850Y-102459212D01*
X130452850Y-102149649D01*
X130493064Y-102164289D01*
X130534760Y-102178407D01*
X130577840Y-102191943D01*
X130622205Y-102204839D01*
X130667755Y-102217038D01*
X130714393Y-102228481D01*
X130762019Y-102239111D01*
X130810534Y-102248868D01*
X130859840Y-102257695D01*
X130909838Y-102265534D01*
X130960429Y-102272326D01*
X131011514Y-102278013D01*
X131062994Y-102282538D01*
X131114771Y-102285842D01*
X131166746Y-102287868D01*
X131218819Y-102288555D01*
X131300198Y-102287386D01*
X131374810Y-102283850D01*
X131442864Y-102277908D01*
X131504569Y-102269518D01*
X131560136Y-102258640D01*
X131609772Y-102245233D01*
X131653688Y-102229256D01*
X131692093Y-102210669D01*
X131709294Y-102200384D01*
X131725196Y-102189431D01*
X131739824Y-102177805D01*
X131753206Y-102165501D01*
X131765366Y-102152514D01*
X131776332Y-102138839D01*
X131786129Y-102124470D01*
X131794784Y-102109403D01*
X131802323Y-102093633D01*
X131808772Y-102077154D01*
X131818504Y-102042051D01*
X131824190Y-102004052D01*
X131826038Y-101963118D01*
X131826038Y-101808337D01*
X131757678Y-101825592D01*
X131683969Y-101841451D01*
X131605517Y-101855636D01*
X131522925Y-101867868D01*
X131436799Y-101877867D01*
X131347742Y-101885355D01*
X131256360Y-101890052D01*
X131163257Y-101891680D01*
X131074537Y-101890547D01*
X130988718Y-101886897D01*
X130906189Y-101880352D01*
X130827340Y-101870534D01*
X130752561Y-101857065D01*
X130682240Y-101839567D01*
X130616769Y-101817662D01*
X130556535Y-101790973D01*
X130528504Y-101775716D01*
X130501929Y-101759122D01*
X130476857Y-101741142D01*
X130453339Y-101721730D01*
X130431423Y-101700838D01*
X130411157Y-101678419D01*
X130392590Y-101654427D01*
X130375770Y-101628813D01*
X130360747Y-101601530D01*
X130347570Y-101572532D01*
X130336286Y-101541771D01*
X130326944Y-101509200D01*
X130319593Y-101474771D01*
X130314283Y-101438438D01*
X130311061Y-101400153D01*
X130309976Y-101359868D01*
X130310081Y-101355898D01*
X130675100Y-101355898D01*
X130675578Y-101377005D01*
X130677018Y-101397175D01*
X130679427Y-101416427D01*
X130682813Y-101434778D01*
X130687185Y-101452244D01*
X130692550Y-101468845D01*
X130698916Y-101484597D01*
X130706292Y-101499518D01*
X130714685Y-101513625D01*
X130724104Y-101526935D01*
X130734556Y-101539466D01*
X130746049Y-101551236D01*
X130758592Y-101562261D01*
X130772192Y-101572560D01*
X130786858Y-101582149D01*
X130802596Y-101591047D01*
X130819416Y-101599271D01*
X130837326Y-101606837D01*
X130856333Y-101613764D01*
X130876445Y-101620069D01*
X130897670Y-101625769D01*
X130920017Y-101630882D01*
X130943493Y-101635425D01*
X130968106Y-101639416D01*
X130993864Y-101642873D01*
X131020776Y-101645811D01*
X131078091Y-101650206D01*
X131140116Y-101652741D01*
X131206913Y-101653555D01*
X131293892Y-101652307D01*
X131378871Y-101648780D01*
X131461339Y-101643300D01*
X131540784Y-101636192D01*
X131616694Y-101627782D01*
X131688558Y-101618395D01*
X131755863Y-101608356D01*
X131818100Y-101597993D01*
X131818100Y-101292400D01*
X131786798Y-101268365D01*
X131752608Y-101245418D01*
X131715801Y-101223622D01*
X131676651Y-101203040D01*
X131635432Y-101183738D01*
X131592416Y-101165779D01*
X131547877Y-101149227D01*
X131502088Y-101134145D01*
X131455323Y-101120599D01*
X131407854Y-101108651D01*
X131359955Y-101098365D01*
X131311898Y-101089807D01*
X131263958Y-101083039D01*
X131216408Y-101078125D01*
X131169520Y-101075130D01*
X131123569Y-101074118D01*
X131070134Y-101075233D01*
X131019978Y-101078575D01*
X130973125Y-101084138D01*
X130929596Y-101091915D01*
X130889417Y-101101902D01*
X130852609Y-101114092D01*
X130819196Y-101128480D01*
X130789202Y-101145059D01*
X130775494Y-101154169D01*
X130762649Y-101163825D01*
X130750671Y-101174025D01*
X130739562Y-101184770D01*
X130729324Y-101196058D01*
X130719962Y-101207890D01*
X130711478Y-101220263D01*
X130703874Y-101233178D01*
X130697154Y-101246633D01*
X130691320Y-101260629D01*
X130686376Y-101275163D01*
X130682325Y-101290236D01*
X130679168Y-101305847D01*
X130676910Y-101321995D01*
X130675553Y-101338679D01*
X130675100Y-101355898D01*
X130310081Y-101355898D01*
X130311045Y-101319504D01*
X130314205Y-101280986D01*
X130319384Y-101244278D01*
X130326510Y-101209342D01*
X130335510Y-101176141D01*
X130346314Y-101144639D01*
X130358848Y-101114798D01*
X130373042Y-101086582D01*
X130388823Y-101059952D01*
X130406118Y-101034872D01*
X130424857Y-101011306D01*
X130444968Y-100989215D01*
X130466377Y-100968563D01*
X130489015Y-100949314D01*
X130512807Y-100931428D01*
X130537683Y-100914871D01*
X130563571Y-100899604D01*
X130590398Y-100885591D01*
X130618093Y-100872794D01*
X130646583Y-100861177D01*
X130675798Y-100850702D01*
X130705664Y-100841332D01*
X130736110Y-100833030D01*
X130767065Y-100825760D01*
X130830209Y-100814165D01*
X130894522Y-100806250D01*
X130959428Y-100801718D01*
X131024351Y-100800274D01*
X131082716Y-100801772D01*
G37*
D11*
G36*
X126037934Y-98935000D02*
G01*
X126037934Y-100300073D01*
X126680537Y-100300073D01*
X126680537Y-100530882D01*
X125117993Y-100530882D01*
X125117993Y-100300073D01*
X125760596Y-100300073D01*
X125760596Y-98935000D01*
X126037934Y-98935000D01*
G37*
G36*
X128539103Y-98935000D02*
G01*
X128539103Y-100530882D01*
X128261765Y-100530882D01*
X128261765Y-99860802D01*
X127188684Y-99860802D01*
X127188684Y-100530882D01*
X126911346Y-100530882D01*
X126911346Y-98935000D01*
X127188684Y-98935000D01*
X127188684Y-99632191D01*
X128261765Y-99632191D01*
X128261765Y-98935000D01*
X128539103Y-98935000D01*
G37*
G36*
X129735874Y-98915243D02*
G01*
X129826105Y-98926210D01*
X129910323Y-98944292D01*
X129988497Y-98969329D01*
X130060596Y-99001160D01*
X130126589Y-99039624D01*
X130186445Y-99084562D01*
X130240132Y-99135813D01*
X130287620Y-99193216D01*
X130328877Y-99256611D01*
X130363872Y-99325837D01*
X130392574Y-99400734D01*
X130414952Y-99481142D01*
X130430975Y-99566900D01*
X130440612Y-99657847D01*
X130443831Y-99753824D01*
X130440519Y-99851078D01*
X130430629Y-99941987D01*
X130414230Y-100026562D01*
X130391389Y-100104812D01*
X130362175Y-100176746D01*
X130326655Y-100242375D01*
X130261702Y-100329015D01*
X130182946Y-100401522D01*
X130090616Y-100459927D01*
X130021635Y-100491046D01*
X129946792Y-100515922D01*
X129866155Y-100534564D01*
X129779792Y-100546983D01*
X129687772Y-100553188D01*
X129639661Y-100553963D01*
X129544386Y-100550862D01*
X129454790Y-100541551D01*
X129370939Y-100526022D01*
X129292897Y-100504264D01*
X129220729Y-100476267D01*
X129154497Y-100442023D01*
X129066425Y-100378921D01*
X128992074Y-100301707D01*
X128931663Y-100210348D01*
X128899240Y-100141568D01*
X128873174Y-100066477D01*
X128853528Y-99985066D01*
X128840368Y-99897325D01*
X128833756Y-99803244D01*
X128832927Y-99753824D01*
X129106235Y-99753824D01*
X129110684Y-99856769D01*
X129124130Y-99949447D01*
X129146722Y-100031890D01*
X129178607Y-100104127D01*
X129219936Y-100166190D01*
X129289986Y-100233167D01*
X129353925Y-100271610D01*
X129427801Y-100299980D01*
X129511764Y-100318310D01*
X129605962Y-100326630D01*
X129639661Y-100327184D01*
X129736657Y-100322194D01*
X129823506Y-100307204D01*
X129900342Y-100282184D01*
X129967296Y-100247102D01*
X130041425Y-100184622D01*
X130085837Y-100125944D01*
X130120807Y-100057101D01*
X130146469Y-99978064D01*
X130162954Y-99888801D01*
X130170396Y-99789281D01*
X130170889Y-99753824D01*
X130166337Y-99645838D01*
X130152632Y-99548557D01*
X130129701Y-99461962D01*
X130097473Y-99386035D01*
X130055875Y-99320759D01*
X130004834Y-99266115D01*
X129944278Y-99222084D01*
X129874134Y-99188650D01*
X129794331Y-99165793D01*
X129704794Y-99153495D01*
X129639661Y-99151154D01*
X129543034Y-99156422D01*
X129456293Y-99172237D01*
X129379355Y-99198618D01*
X129312136Y-99235583D01*
X129254552Y-99283149D01*
X129206521Y-99341336D01*
X129167960Y-99410160D01*
X129138784Y-99489641D01*
X129118911Y-99579796D01*
X129108257Y-99680643D01*
X129106235Y-99753824D01*
X128832927Y-99753824D01*
X128836147Y-99657847D01*
X128845788Y-99566900D01*
X128861822Y-99481142D01*
X128884224Y-99400734D01*
X128912964Y-99325837D01*
X128948016Y-99256611D01*
X128989353Y-99193216D01*
X129036946Y-99135813D01*
X129090769Y-99084562D01*
X129150794Y-99039624D01*
X129216995Y-99001160D01*
X129289342Y-98969329D01*
X129367810Y-98944292D01*
X129452371Y-98926210D01*
X129542997Y-98915243D01*
X129639661Y-98911552D01*
X129735874Y-98915243D01*
G37*
G36*
X131456239Y-98914392D02*
G01*
X131550120Y-98923037D01*
X131638652Y-98937678D01*
X131721669Y-98958504D01*
X131799004Y-98985706D01*
X131870490Y-99019474D01*
X131935959Y-99059997D01*
X131995246Y-99107465D01*
X132048183Y-99162070D01*
X132094603Y-99223999D01*
X132134339Y-99293445D01*
X132167225Y-99370595D01*
X132193094Y-99455641D01*
X132211778Y-99548773D01*
X132223111Y-99650180D01*
X132226926Y-99760052D01*
X132222888Y-99867983D01*
X132210975Y-99966671D01*
X132191485Y-100056432D01*
X132164718Y-100137579D01*
X132130972Y-100210427D01*
X132090546Y-100275290D01*
X132043739Y-100332484D01*
X131962218Y-100404580D01*
X131868021Y-100461189D01*
X131798679Y-100490847D01*
X131724451Y-100514407D01*
X131645636Y-100532185D01*
X131562532Y-100544494D01*
X131475438Y-100551648D01*
X131384654Y-100553963D01*
X131298681Y-100551640D01*
X131218014Y-100544718D01*
X131142686Y-100533272D01*
X131039776Y-100507776D01*
X130949066Y-100472510D01*
X130870667Y-100427719D01*
X130804692Y-100373650D01*
X130751254Y-100310548D01*
X130710464Y-100238661D01*
X130682435Y-100158234D01*
X130667279Y-100069514D01*
X130664382Y-100005882D01*
X130664668Y-100001852D01*
X130941353Y-100001852D01*
X130948288Y-100076993D01*
X130976662Y-100156639D01*
X131027273Y-100220496D01*
X131100492Y-100268650D01*
X131175592Y-100295922D01*
X131265585Y-100313240D01*
X131342968Y-100319722D01*
X131399309Y-100320956D01*
X131496191Y-100316319D01*
X131587448Y-100301590D01*
X131671579Y-100275534D01*
X131747080Y-100236921D01*
X131812449Y-100184517D01*
X131866183Y-100117091D01*
X131906779Y-100033410D01*
X131927701Y-99959242D01*
X131932735Y-99932243D01*
X131879687Y-99873882D01*
X131820152Y-99824417D01*
X131754753Y-99783505D01*
X131684111Y-99750801D01*
X131608850Y-99725963D01*
X131529591Y-99708646D01*
X131446958Y-99698508D01*
X131361573Y-99695205D01*
X131286193Y-99697962D01*
X131197346Y-99710167D01*
X131121785Y-99732037D01*
X131045950Y-99772829D01*
X130990724Y-99828406D01*
X130956022Y-99898593D01*
X130941760Y-99983212D01*
X130941353Y-100001852D01*
X130664668Y-100001852D01*
X130670995Y-99912549D01*
X130690512Y-99828695D01*
X130722447Y-99754255D01*
X130766314Y-99689163D01*
X130821629Y-99633355D01*
X130887905Y-99586764D01*
X130964657Y-99549326D01*
X131051400Y-99520976D01*
X131147649Y-99501649D01*
X131252917Y-99491278D01*
X131327868Y-99489309D01*
X131409978Y-99491737D01*
X131486297Y-99498766D01*
X131579588Y-99514630D01*
X131663882Y-99537081D01*
X131739922Y-99565207D01*
X131808451Y-99598099D01*
X131884681Y-99644529D01*
X131951786Y-99695205D01*
X131951786Y-99659302D01*
X131944654Y-99557252D01*
X131923977Y-99468102D01*
X131890838Y-99391226D01*
X131846318Y-99326000D01*
X131791498Y-99271797D01*
X131727459Y-99227995D01*
X131655283Y-99193967D01*
X131576051Y-99169089D01*
X131490844Y-99152736D01*
X131400744Y-99144283D01*
X131338492Y-99142728D01*
X131242406Y-99145007D01*
X131149986Y-99151481D01*
X131061946Y-99161604D01*
X130978997Y-99174831D01*
X130901853Y-99190617D01*
X130814672Y-99213117D01*
X130739065Y-99237698D01*
X130712376Y-99247875D01*
X130712376Y-99021095D01*
X130783418Y-98992146D01*
X130867505Y-98966792D01*
X130943231Y-98949458D01*
X131025702Y-98935044D01*
X131114206Y-98923824D01*
X131208028Y-98916073D01*
X131281457Y-98912702D01*
X131357177Y-98911552D01*
X131456239Y-98914392D01*
G37*
G36*
X133387201Y-98911552D02*
G01*
X133466224Y-98912703D01*
X133541256Y-98916085D01*
X133634937Y-98923880D01*
X133721153Y-98935197D01*
X133799695Y-98949784D01*
X133886760Y-98972229D01*
X133961094Y-98998892D01*
X134011120Y-99022927D01*
X134011120Y-99249706D01*
X133933588Y-99221568D01*
X133855751Y-99199284D01*
X133766388Y-99179410D01*
X133686916Y-99166097D01*
X133600608Y-99155785D01*
X133507706Y-99149123D01*
X133433847Y-99146911D01*
X133408450Y-99146758D01*
X133324567Y-99149121D01*
X133246283Y-99156199D01*
X133173571Y-99167976D01*
X133074895Y-99194417D01*
X132988614Y-99231341D01*
X132914639Y-99278692D01*
X132852885Y-99336418D01*
X132803263Y-99404462D01*
X132765687Y-99482771D01*
X132740070Y-99571291D01*
X132726326Y-99669968D01*
X132723715Y-99741367D01*
X132729863Y-99841197D01*
X132748319Y-99931655D01*
X132779107Y-100012643D01*
X132822247Y-100084065D01*
X132877762Y-100145822D01*
X132945673Y-100197817D01*
X133026002Y-100239950D01*
X133118771Y-100272126D01*
X133224001Y-100294246D01*
X133301088Y-100303357D01*
X133383729Y-100307927D01*
X133427135Y-100308499D01*
X133518133Y-100306056D01*
X133605989Y-100299260D01*
X133689552Y-100288909D01*
X133767670Y-100275801D01*
X133855910Y-100256757D01*
X133931599Y-100236214D01*
X134002693Y-100211779D01*
X134002693Y-100451015D01*
X133922756Y-100483889D01*
X133845332Y-100505806D01*
X133772479Y-100521448D01*
X133690851Y-100534721D01*
X133601301Y-100544987D01*
X133504685Y-100551613D01*
X133428099Y-100553811D01*
X133401856Y-100553963D01*
X133285952Y-100550674D01*
X133177565Y-100540836D01*
X133076689Y-100524495D01*
X132983319Y-100501699D01*
X132897449Y-100472493D01*
X132819075Y-100436923D01*
X132748190Y-100395035D01*
X132684789Y-100346876D01*
X132628868Y-100292491D01*
X132580420Y-100231928D01*
X132539440Y-100165231D01*
X132505923Y-100092447D01*
X132479864Y-100013623D01*
X132461257Y-99928804D01*
X132450097Y-99838037D01*
X132446378Y-99741367D01*
X132450000Y-99645531D01*
X132460883Y-99554979D01*
X132479045Y-99469835D01*
X132504509Y-99390224D01*
X132537296Y-99316270D01*
X132577425Y-99248096D01*
X132624919Y-99185826D01*
X132679798Y-99129585D01*
X132742082Y-99079496D01*
X132811794Y-99035683D01*
X132888953Y-98998271D01*
X132973582Y-98967383D01*
X133065700Y-98943143D01*
X133165328Y-98925675D01*
X133272488Y-98915104D01*
X133387201Y-98911552D01*
G37*
G36*
X130016759Y-89434709D02*
G01*
X130081429Y-89498021D01*
X130115334Y-89563676D01*
X130155155Y-89718011D01*
X130156267Y-89828514D01*
X130118984Y-89982572D01*
X130084979Y-90052860D01*
X130020221Y-90119006D01*
X129921420Y-90152996D01*
X129790709Y-90153819D01*
X129789525Y-89402478D01*
X129914446Y-89401691D01*
X130016759Y-89434709D01*
G37*
G36*
X130405112Y-90402942D02*
G01*
X127655112Y-90402942D01*
X127655112Y-89713657D01*
X127755112Y-89713657D01*
X127756363Y-89838058D01*
X127755201Y-89845873D01*
X127756533Y-89854884D01*
X127756553Y-89856860D01*
X127756976Y-89857881D01*
X127757351Y-89860418D01*
X127800112Y-90026147D01*
X127800632Y-90033466D01*
X127804832Y-90044441D01*
X127805155Y-90045693D01*
X127805477Y-90046128D01*
X127805887Y-90047198D01*
X127849893Y-90132415D01*
X127853466Y-90141039D01*
X127855842Y-90143935D01*
X127856576Y-90145355D01*
X127858074Y-90146654D01*
X127862793Y-90152404D01*
X127941472Y-90229431D01*
X127942291Y-90231068D01*
X127949774Y-90237558D01*
X127959874Y-90247446D01*
X127962362Y-90248476D01*
X127964398Y-90250242D01*
X127977824Y-90256236D01*
X128106270Y-90297686D01*
X128115480Y-90301501D01*
X128119238Y-90301871D01*
X128120732Y-90302353D01*
X128122706Y-90302212D01*
X128130112Y-90302942D01*
X128247525Y-90301760D01*
X128249303Y-90302353D01*
X128259310Y-90301641D01*
X128273316Y-90301501D01*
X128275805Y-90300469D01*
X128278493Y-90300279D01*
X128292225Y-90295024D01*
X128390382Y-90244335D01*
X128409555Y-90222227D01*
X128418809Y-90194466D01*
X128416735Y-90165276D01*
X128403647Y-90139101D01*
X128381540Y-90119928D01*
X128353779Y-90110674D01*
X128324589Y-90112748D01*
X128310857Y-90118003D01*
X128242891Y-90153100D01*
X128145433Y-90154081D01*
X128043464Y-90121175D01*
X127978794Y-90057863D01*
X127944889Y-89992208D01*
X127905068Y-89837873D01*
X127903956Y-89727371D01*
X127941241Y-89573308D01*
X127975244Y-89503024D01*
X128040002Y-89436878D01*
X128139016Y-89402814D01*
X128200886Y-89401925D01*
X128302762Y-89434802D01*
X128312394Y-89444071D01*
X128313288Y-89639229D01*
X128201194Y-89640098D01*
X128174158Y-89651297D01*
X128153466Y-89671989D01*
X128142267Y-89699025D01*
X128142267Y-89728289D01*
X128153466Y-89755325D01*
X128174158Y-89776017D01*
X128201194Y-89787216D01*
X128215826Y-89788657D01*
X128401887Y-89787216D01*
X128428923Y-89776017D01*
X128449615Y-89755325D01*
X128460814Y-89728289D01*
X128462255Y-89713657D01*
X128460814Y-89399025D01*
X128449615Y-89371989D01*
X128440288Y-89360624D01*
X128406330Y-89327942D01*
X128697969Y-89327942D01*
X128699379Y-90223520D01*
X128698152Y-90233181D01*
X128699402Y-90237765D01*
X128699410Y-90242574D01*
X128703227Y-90251789D01*
X128705852Y-90261413D01*
X128708779Y-90265193D01*
X128710609Y-90269610D01*
X128717659Y-90276660D01*
X128723769Y-90284550D01*
X128727922Y-90286923D01*
X128731301Y-90290302D01*
X128740513Y-90294118D01*
X128749178Y-90299069D01*
X128753921Y-90299671D01*
X128758337Y-90301501D01*
X128768311Y-90301501D01*
X128778208Y-90302759D01*
X128782820Y-90301501D01*
X128787601Y-90301501D01*
X128796816Y-90297683D01*
X128806440Y-90295059D01*
X128810220Y-90292131D01*
X128814637Y-90290302D01*
X128821687Y-90283251D01*
X128829577Y-90277142D01*
X128833929Y-90271009D01*
X128835329Y-90269610D01*
X128835898Y-90268235D01*
X128838087Y-90265152D01*
X129212695Y-89607497D01*
X129213696Y-90242574D01*
X129224895Y-90269610D01*
X129245587Y-90290302D01*
X129272623Y-90301501D01*
X129301887Y-90301501D01*
X129328923Y-90290302D01*
X129349615Y-90269610D01*
X129360814Y-90242574D01*
X129362255Y-90227942D01*
X129360844Y-89332363D01*
X129361406Y-89327942D01*
X129640826Y-89327942D01*
X129642267Y-90242574D01*
X129653466Y-90269610D01*
X129674158Y-90290302D01*
X129701194Y-90301501D01*
X129715826Y-90302942D01*
X129928908Y-90301600D01*
X129939492Y-90302353D01*
X129943196Y-90301510D01*
X129944744Y-90301501D01*
X129946575Y-90300742D01*
X129953829Y-90299093D01*
X130071404Y-90258644D01*
X130073314Y-90258644D01*
X130082681Y-90254764D01*
X130095826Y-90250242D01*
X130097861Y-90248476D01*
X130100350Y-90247446D01*
X130111716Y-90238118D01*
X130196258Y-90151763D01*
X130203648Y-90145355D01*
X130205656Y-90142164D01*
X130206758Y-90141039D01*
X130207515Y-90139211D01*
X130211480Y-90132912D01*
X130251057Y-90051107D01*
X130255069Y-90045693D01*
X130259001Y-90034686D01*
X130259592Y-90033466D01*
X130259630Y-90032926D01*
X130260016Y-90031847D01*
X130300529Y-89864443D01*
X130303671Y-89856860D01*
X130304567Y-89847760D01*
X130305024Y-89845873D01*
X130304860Y-89844777D01*
X130305112Y-89842228D01*
X130303860Y-89717831D01*
X130305024Y-89710012D01*
X130303690Y-89700997D01*
X130303671Y-89699025D01*
X130303248Y-89698004D01*
X130302873Y-89695467D01*
X130260111Y-89529737D01*
X130259592Y-89522419D01*
X130255391Y-89511443D01*
X130255069Y-89510192D01*
X130254746Y-89509756D01*
X130254337Y-89508687D01*
X130210330Y-89423469D01*
X130206758Y-89414846D01*
X130204381Y-89411949D01*
X130203648Y-89410530D01*
X130202149Y-89409230D01*
X130197431Y-89403481D01*
X130118751Y-89326454D01*
X130117933Y-89324817D01*
X130110449Y-89318326D01*
X130100350Y-89308439D01*
X130097861Y-89307408D01*
X130095826Y-89305643D01*
X130082401Y-89299649D01*
X129953950Y-89258196D01*
X129944744Y-89254383D01*
X129940986Y-89254012D01*
X129939493Y-89253531D01*
X129937517Y-89253671D01*
X129930112Y-89252942D01*
X129701194Y-89254383D01*
X129674158Y-89265582D01*
X129653466Y-89286274D01*
X129642267Y-89313310D01*
X129640826Y-89327942D01*
X129361406Y-89327942D01*
X129362072Y-89322703D01*
X129360821Y-89318118D01*
X129360814Y-89313310D01*
X129356996Y-89304093D01*
X129354372Y-89294472D01*
X129351445Y-89290692D01*
X129349615Y-89286274D01*
X129342561Y-89279220D01*
X129336455Y-89271335D01*
X129332304Y-89268963D01*
X129328923Y-89265582D01*
X129319703Y-89261763D01*
X129311046Y-89256816D01*
X129306305Y-89256213D01*
X129301887Y-89254383D01*
X129291910Y-89254383D01*
X129282016Y-89253125D01*
X129277404Y-89254383D01*
X129272623Y-89254383D01*
X129263407Y-89258200D01*
X129253784Y-89260825D01*
X129250003Y-89263752D01*
X129245587Y-89265582D01*
X129238536Y-89272632D01*
X129230647Y-89278742D01*
X129226294Y-89284874D01*
X129224895Y-89286274D01*
X129224325Y-89287648D01*
X129222137Y-89290732D01*
X128847528Y-89948386D01*
X128846528Y-89313310D01*
X128835329Y-89286274D01*
X128814637Y-89265582D01*
X128787601Y-89254383D01*
X128758337Y-89254383D01*
X128731301Y-89265582D01*
X128710609Y-89286274D01*
X128699410Y-89313310D01*
X128697969Y-89327942D01*
X128406330Y-89327942D01*
X128404172Y-89325865D01*
X128403648Y-89324817D01*
X128397925Y-89319853D01*
X128386066Y-89308440D01*
X128383577Y-89307409D01*
X128381541Y-89305643D01*
X128368115Y-89299649D01*
X128239664Y-89258196D01*
X128230458Y-89254383D01*
X128226700Y-89254012D01*
X128225207Y-89253531D01*
X128223231Y-89253671D01*
X128215826Y-89252942D01*
X128129823Y-89254177D01*
X128120731Y-89253531D01*
X128117085Y-89254359D01*
X128115480Y-89254383D01*
X128113649Y-89255141D01*
X128106394Y-89256791D01*
X127988820Y-89297241D01*
X127986910Y-89297241D01*
X127977544Y-89301120D01*
X127964398Y-89305643D01*
X127962362Y-89307408D01*
X127959874Y-89308439D01*
X127948509Y-89317766D01*
X127863965Y-89404121D01*
X127856576Y-89410530D01*
X127854567Y-89413720D01*
X127853466Y-89414846D01*
X127852708Y-89416673D01*
X127848744Y-89422973D01*
X127809166Y-89504777D01*
X127805155Y-89510192D01*
X127801222Y-89521198D01*
X127800632Y-89522419D01*
X127800593Y-89522958D01*
X127800208Y-89524038D01*
X127759696Y-89691436D01*
X127756553Y-89699025D01*
X127755656Y-89708130D01*
X127755201Y-89710012D01*
X127755363Y-89711103D01*
X127755112Y-89713657D01*
X127655112Y-89713657D01*
X127655112Y-89152942D01*
X130405112Y-89152942D01*
X130405112Y-90402942D01*
G37*
G36*
X130257243Y-95377942D02*
G01*
X127680112Y-95377942D01*
X127680112Y-94945800D01*
X127780112Y-94945800D01*
X127781187Y-95020674D01*
X127780701Y-95022133D01*
X127781336Y-95031079D01*
X127781553Y-95046146D01*
X127782584Y-95048635D01*
X127782775Y-95051323D01*
X127788030Y-95065055D01*
X127832037Y-95150273D01*
X127835609Y-95158896D01*
X127837985Y-95161792D01*
X127838719Y-95163212D01*
X127840217Y-95164511D01*
X127844936Y-95170261D01*
X127889367Y-95213022D01*
X127894842Y-95219335D01*
X127897976Y-95221308D01*
X127899158Y-95222445D01*
X127900985Y-95223202D01*
X127907285Y-95227167D01*
X127983713Y-95264142D01*
X127984873Y-95265302D01*
X127993472Y-95268864D01*
X128006732Y-95275279D01*
X128009419Y-95275469D01*
X128011909Y-95276501D01*
X128026541Y-95277942D01*
X128239622Y-95276600D01*
X128250206Y-95277353D01*
X128253910Y-95276510D01*
X128255458Y-95276501D01*
X128257289Y-95275742D01*
X128264543Y-95274093D01*
X128406541Y-95225242D01*
X128428648Y-95206068D01*
X128441735Y-95179895D01*
X128443810Y-95150705D01*
X128434556Y-95122943D01*
X128415382Y-95100835D01*
X128389208Y-95087748D01*
X128360018Y-95085674D01*
X128345681Y-95088934D01*
X128232136Y-95127996D01*
X128046247Y-95129166D01*
X127987109Y-95100556D01*
X127960574Y-95075018D01*
X127929883Y-95015586D01*
X127929156Y-94964950D01*
X127957497Y-94906368D01*
X127983035Y-94879833D01*
X128047989Y-94846291D01*
X128210460Y-94804370D01*
X128217778Y-94803851D01*
X128228753Y-94799651D01*
X128230005Y-94799328D01*
X128230440Y-94799005D01*
X128231510Y-94798596D01*
X128316728Y-94754588D01*
X128325352Y-94751017D01*
X128328248Y-94748640D01*
X128329668Y-94747907D01*
X128330967Y-94746408D01*
X128336717Y-94741690D01*
X128379478Y-94697258D01*
X128385791Y-94691784D01*
X128387759Y-94688657D01*
X128637255Y-94688657D01*
X128638506Y-94813058D01*
X128637344Y-94820873D01*
X128638676Y-94829884D01*
X128638696Y-94831860D01*
X128639119Y-94832881D01*
X128639494Y-94835418D01*
X128682255Y-95001147D01*
X128682775Y-95008466D01*
X128686975Y-95019441D01*
X128687298Y-95020693D01*
X128687620Y-95021128D01*
X128688030Y-95022198D01*
X128732036Y-95107415D01*
X128735609Y-95116039D01*
X128737985Y-95118935D01*
X128738719Y-95120355D01*
X128740217Y-95121654D01*
X128744936Y-95127404D01*
X128823615Y-95204431D01*
X128824434Y-95206068D01*
X128831917Y-95212558D01*
X128842017Y-95222446D01*
X128844505Y-95223476D01*
X128846541Y-95225242D01*
X128859967Y-95231236D01*
X128988413Y-95272686D01*
X128997623Y-95276501D01*
X129001381Y-95276871D01*
X129002875Y-95277353D01*
X129004849Y-95277212D01*
X129012255Y-95277942D01*
X129098260Y-95276706D01*
X129107349Y-95277353D01*
X129110994Y-95276524D01*
X129112601Y-95276501D01*
X129114432Y-95275742D01*
X129121686Y-95274093D01*
X129239261Y-95233644D01*
X129241172Y-95233644D01*
X129250537Y-95229764D01*
X129263684Y-95225242D01*
X129265720Y-95223475D01*
X129268209Y-95222445D01*
X129279574Y-95213118D01*
X129331758Y-95158896D01*
X129342957Y-95131859D01*
X129342957Y-95102597D01*
X129331758Y-95075560D01*
X129311066Y-95054868D01*
X129284029Y-95043669D01*
X129254767Y-95043669D01*
X129227730Y-95054868D01*
X129216365Y-95064195D01*
X129187473Y-95094215D01*
X129089066Y-95128069D01*
X129027194Y-95128958D01*
X128925607Y-95096175D01*
X128860937Y-95032863D01*
X128827032Y-94967208D01*
X128787211Y-94812873D01*
X128786099Y-94702371D01*
X128823384Y-94548308D01*
X128857387Y-94478024D01*
X128922145Y-94411878D01*
X129021159Y-94377814D01*
X129083029Y-94376925D01*
X129184905Y-94409802D01*
X129227730Y-94451017D01*
X129254767Y-94462216D01*
X129284029Y-94462216D01*
X129311066Y-94451017D01*
X129331758Y-94430325D01*
X129342957Y-94403288D01*
X129342957Y-94374026D01*
X129331758Y-94346989D01*
X129322431Y-94335624D01*
X129288473Y-94302942D01*
X129580112Y-94302942D01*
X129581553Y-95217574D01*
X129592752Y-95244610D01*
X129613444Y-95265302D01*
X129640480Y-95276501D01*
X129669744Y-95276501D01*
X129696780Y-95265302D01*
X129717472Y-95244610D01*
X129728671Y-95217574D01*
X129730112Y-95202942D01*
X129728811Y-94377702D01*
X130098316Y-94376501D01*
X130125352Y-94365302D01*
X130146044Y-94344610D01*
X130157243Y-94317574D01*
X130157243Y-94288310D01*
X130146044Y-94261274D01*
X130125352Y-94240582D01*
X130098316Y-94229383D01*
X130083684Y-94227942D01*
X129640480Y-94229383D01*
X129613444Y-94240582D01*
X129592752Y-94261274D01*
X129581553Y-94288310D01*
X129580112Y-94302942D01*
X129288473Y-94302942D01*
X129286315Y-94300865D01*
X129285791Y-94299817D01*
X129280068Y-94294853D01*
X129268209Y-94283440D01*
X129265720Y-94282409D01*
X129263684Y-94280643D01*
X129250258Y-94274649D01*
X129121807Y-94233196D01*
X129112601Y-94229383D01*
X129108843Y-94229012D01*
X129107350Y-94228531D01*
X129105374Y-94228671D01*
X129097969Y-94227942D01*
X129011966Y-94229177D01*
X129002874Y-94228531D01*
X128999228Y-94229359D01*
X128997623Y-94229383D01*
X128995792Y-94230141D01*
X128988537Y-94231791D01*
X128870963Y-94272241D01*
X128869053Y-94272241D01*
X128859687Y-94276120D01*
X128846541Y-94280643D01*
X128844505Y-94282408D01*
X128842017Y-94283439D01*
X128830652Y-94292766D01*
X128746108Y-94379121D01*
X128738719Y-94385530D01*
X128736710Y-94388720D01*
X128735609Y-94389846D01*
X128734851Y-94391673D01*
X128730887Y-94397973D01*
X128691309Y-94479777D01*
X128687298Y-94485192D01*
X128683365Y-94496198D01*
X128682775Y-94497419D01*
X128682736Y-94497958D01*
X128682351Y-94499038D01*
X128641839Y-94666436D01*
X128638696Y-94674025D01*
X128637799Y-94683130D01*
X128637344Y-94685012D01*
X128637506Y-94686103D01*
X128637255Y-94688657D01*
X128387759Y-94688657D01*
X128387764Y-94688649D01*
X128388901Y-94687468D01*
X128389658Y-94685640D01*
X128393623Y-94679341D01*
X128430598Y-94602912D01*
X128431758Y-94601753D01*
X128435320Y-94593153D01*
X128441735Y-94579894D01*
X128441925Y-94577206D01*
X128442957Y-94574717D01*
X128444398Y-94560085D01*
X128443322Y-94485210D01*
X128443809Y-94483752D01*
X128443173Y-94474805D01*
X128442957Y-94459739D01*
X128441925Y-94457249D01*
X128441735Y-94454562D01*
X128436480Y-94440830D01*
X128392472Y-94355611D01*
X128388901Y-94346989D01*
X128386524Y-94344092D01*
X128385791Y-94342673D01*
X128384292Y-94341373D01*
X128379574Y-94335624D01*
X128335143Y-94292863D01*
X128329669Y-94286551D01*
X128326533Y-94284577D01*
X128325352Y-94283440D01*
X128323524Y-94282683D01*
X128317226Y-94278718D01*
X128240795Y-94241740D01*
X128239637Y-94240582D01*
X128231042Y-94237021D01*
X128217779Y-94230605D01*
X128215089Y-94230413D01*
X128212601Y-94229383D01*
X128197969Y-94227942D01*
X127984891Y-94229283D01*
X127974303Y-94228531D01*
X127970599Y-94229373D01*
X127969052Y-94229383D01*
X127967221Y-94230141D01*
X127959967Y-94231791D01*
X127817969Y-94280643D01*
X127795862Y-94299817D01*
X127782775Y-94325991D01*
X127780701Y-94355181D01*
X127789955Y-94382943D01*
X127809129Y-94405050D01*
X127835303Y-94418137D01*
X127864493Y-94420211D01*
X127878829Y-94416951D01*
X127992375Y-94377887D01*
X128178262Y-94376717D01*
X128237399Y-94405328D01*
X128263935Y-94430866D01*
X128294626Y-94490298D01*
X128295353Y-94540934D01*
X128267012Y-94599516D01*
X128241474Y-94626051D01*
X128176520Y-94659593D01*
X128014049Y-94701514D01*
X128006732Y-94702034D01*
X127995756Y-94706233D01*
X127994505Y-94706557D01*
X127994069Y-94706879D01*
X127993000Y-94707289D01*
X127907781Y-94751296D01*
X127899158Y-94754868D01*
X127896261Y-94757244D01*
X127894842Y-94757978D01*
X127893542Y-94759476D01*
X127887793Y-94764195D01*
X127845031Y-94808626D01*
X127838719Y-94814101D01*
X127836745Y-94817235D01*
X127835609Y-94818417D01*
X127834851Y-94820244D01*
X127830887Y-94826544D01*
X127793911Y-94902972D01*
X127792752Y-94904132D01*
X127789189Y-94912731D01*
X127782775Y-94925991D01*
X127782584Y-94928678D01*
X127781553Y-94931168D01*
X127780112Y-94945800D01*
X127680112Y-94945800D01*
X127680112Y-94127942D01*
X130257243Y-94127942D01*
X130257243Y-95377942D01*
G37*
G36*
X129056045Y-91934709D02*
G01*
X129120715Y-91998021D01*
X129154620Y-92063676D01*
X129194441Y-92218011D01*
X129195553Y-92328514D01*
X129158270Y-92482572D01*
X129124265Y-92552860D01*
X129059507Y-92619006D01*
X128960706Y-92652996D01*
X128829995Y-92653819D01*
X128828811Y-91902478D01*
X128953732Y-91901691D01*
X129056045Y-91934709D01*
G37*
G36*
X129826937Y-92493015D02*
G01*
X129715295Y-92159749D01*
X129937712Y-92159026D01*
X129826937Y-92493015D01*
G37*
G36*
X130300952Y-92902942D02*
G01*
X127680112Y-92902942D01*
X127680112Y-92470800D01*
X127780112Y-92470800D01*
X127781187Y-92545674D01*
X127780701Y-92547133D01*
X127781336Y-92556079D01*
X127781553Y-92571146D01*
X127782584Y-92573635D01*
X127782775Y-92576323D01*
X127788030Y-92590055D01*
X127832037Y-92675273D01*
X127835609Y-92683896D01*
X127837985Y-92686792D01*
X127838719Y-92688212D01*
X127840217Y-92689511D01*
X127844936Y-92695261D01*
X127889367Y-92738022D01*
X127894842Y-92744335D01*
X127897976Y-92746308D01*
X127899158Y-92747445D01*
X127900985Y-92748202D01*
X127907285Y-92752167D01*
X127983713Y-92789142D01*
X127984873Y-92790302D01*
X127993472Y-92793864D01*
X128006732Y-92800279D01*
X128009419Y-92800469D01*
X128011909Y-92801501D01*
X128026541Y-92802942D01*
X128239622Y-92801600D01*
X128250206Y-92802353D01*
X128253910Y-92801510D01*
X128255458Y-92801501D01*
X128257289Y-92800742D01*
X128264543Y-92799093D01*
X128406541Y-92750242D01*
X128428648Y-92731068D01*
X128441735Y-92704895D01*
X128443810Y-92675705D01*
X128434556Y-92647943D01*
X128415382Y-92625835D01*
X128389208Y-92612748D01*
X128360018Y-92610674D01*
X128345681Y-92613934D01*
X128232136Y-92652996D01*
X128046247Y-92654166D01*
X127987109Y-92625556D01*
X127960574Y-92600018D01*
X127929883Y-92540586D01*
X127929156Y-92489950D01*
X127957497Y-92431368D01*
X127983035Y-92404833D01*
X128047989Y-92371291D01*
X128210460Y-92329370D01*
X128217778Y-92328851D01*
X128228753Y-92324651D01*
X128230005Y-92324328D01*
X128230440Y-92324005D01*
X128231510Y-92323596D01*
X128316728Y-92279588D01*
X128325352Y-92276017D01*
X128328248Y-92273640D01*
X128329668Y-92272907D01*
X128330967Y-92271408D01*
X128336717Y-92266690D01*
X128379478Y-92222258D01*
X128385791Y-92216784D01*
X128387764Y-92213649D01*
X128388901Y-92212468D01*
X128389658Y-92210640D01*
X128393623Y-92204341D01*
X128430598Y-92127912D01*
X128431758Y-92126753D01*
X128435320Y-92118153D01*
X128441735Y-92104894D01*
X128441925Y-92102206D01*
X128442957Y-92099717D01*
X128444398Y-92085085D01*
X128443322Y-92010210D01*
X128443809Y-92008752D01*
X128443173Y-91999805D01*
X128442957Y-91984739D01*
X128441925Y-91982249D01*
X128441735Y-91979562D01*
X128436480Y-91965830D01*
X128392472Y-91880611D01*
X128388901Y-91871989D01*
X128386524Y-91869092D01*
X128385791Y-91867673D01*
X128384292Y-91866373D01*
X128379574Y-91860624D01*
X128345616Y-91827942D01*
X128680112Y-91827942D01*
X128681553Y-92742574D01*
X128692752Y-92769610D01*
X128713444Y-92790302D01*
X128740480Y-92801501D01*
X128755112Y-92802942D01*
X128968194Y-92801600D01*
X128978778Y-92802353D01*
X128982482Y-92801510D01*
X128984030Y-92801501D01*
X128985861Y-92800742D01*
X128993115Y-92799093D01*
X129110690Y-92758644D01*
X129112600Y-92758644D01*
X129121967Y-92754764D01*
X129135112Y-92750242D01*
X129137147Y-92748476D01*
X129139636Y-92747446D01*
X129151002Y-92738118D01*
X129235544Y-92651763D01*
X129242934Y-92645355D01*
X129244942Y-92642164D01*
X129246044Y-92641039D01*
X129246801Y-92639211D01*
X129250766Y-92632912D01*
X129290343Y-92551107D01*
X129294355Y-92545693D01*
X129298287Y-92534686D01*
X129298878Y-92533466D01*
X129298916Y-92532926D01*
X129299302Y-92531847D01*
X129339815Y-92364443D01*
X129342957Y-92356860D01*
X129343853Y-92347760D01*
X129344310Y-92345873D01*
X129344146Y-92344777D01*
X129344398Y-92342228D01*
X129343146Y-92217831D01*
X129344310Y-92210012D01*
X129342976Y-92200997D01*
X129342957Y-92199025D01*
X129342534Y-92198004D01*
X129342159Y-92195467D01*
X129299397Y-92029737D01*
X129298878Y-92022419D01*
X129294677Y-92011443D01*
X129294355Y-92010192D01*
X129294032Y-92009756D01*
X129293623Y-92008687D01*
X129249616Y-91923469D01*
X129246044Y-91914846D01*
X129243667Y-91911949D01*
X129242934Y-91910530D01*
X129241435Y-91909230D01*
X129236717Y-91903481D01*
X129169138Y-91837322D01*
X129452130Y-91837322D01*
X129455390Y-91851659D01*
X129753835Y-92742550D01*
X129754205Y-92747752D01*
X129758365Y-92756073D01*
X129761384Y-92765084D01*
X129764894Y-92769131D01*
X129767291Y-92773925D01*
X129774399Y-92780090D01*
X129780558Y-92787191D01*
X129785347Y-92789585D01*
X129789398Y-92793099D01*
X129798323Y-92796073D01*
X129806731Y-92800278D01*
X129812075Y-92800657D01*
X129817161Y-92802353D01*
X129826541Y-92801686D01*
X129835921Y-92802353D01*
X129841006Y-92800657D01*
X129846351Y-92800278D01*
X129854761Y-92796072D01*
X129863683Y-92793099D01*
X129867730Y-92789588D01*
X129872524Y-92787192D01*
X129878687Y-92780086D01*
X129885791Y-92773925D01*
X129888186Y-92769133D01*
X129891698Y-92765085D01*
X129897692Y-92751659D01*
X130112063Y-92105323D01*
X130114386Y-92099717D01*
X130114386Y-92098321D01*
X130200952Y-91837323D01*
X130198877Y-91808133D01*
X130185791Y-91781959D01*
X130163683Y-91762785D01*
X130135921Y-91753531D01*
X130106731Y-91755606D01*
X130080558Y-91768693D01*
X130061384Y-91790800D01*
X130055390Y-91804225D01*
X129987054Y-92010259D01*
X129665566Y-92011305D01*
X129591698Y-91790799D01*
X129572524Y-91768692D01*
X129546351Y-91755606D01*
X129517161Y-91753531D01*
X129489398Y-91762785D01*
X129467291Y-91781959D01*
X129454205Y-91808132D01*
X129452130Y-91837322D01*
X129169138Y-91837322D01*
X129158037Y-91826454D01*
X129157219Y-91824817D01*
X129149735Y-91818326D01*
X129139636Y-91808439D01*
X129137147Y-91807408D01*
X129135112Y-91805643D01*
X129121687Y-91799649D01*
X128993236Y-91758196D01*
X128984030Y-91754383D01*
X128980272Y-91754012D01*
X128978779Y-91753531D01*
X128976803Y-91753671D01*
X128969398Y-91752942D01*
X128740480Y-91754383D01*
X128713444Y-91765582D01*
X128692752Y-91786274D01*
X128681553Y-91813310D01*
X128680112Y-91827942D01*
X128345616Y-91827942D01*
X128335143Y-91817863D01*
X128329669Y-91811551D01*
X128326533Y-91809577D01*
X128325352Y-91808440D01*
X128323524Y-91807683D01*
X128317226Y-91803718D01*
X128240795Y-91766740D01*
X128239637Y-91765582D01*
X128231042Y-91762021D01*
X128217779Y-91755605D01*
X128215089Y-91755413D01*
X128212601Y-91754383D01*
X128197969Y-91752942D01*
X127984891Y-91754283D01*
X127974303Y-91753531D01*
X127970599Y-91754373D01*
X127969052Y-91754383D01*
X127967221Y-91755141D01*
X127959967Y-91756791D01*
X127817969Y-91805643D01*
X127795862Y-91824817D01*
X127782775Y-91850991D01*
X127780701Y-91880181D01*
X127789955Y-91907943D01*
X127809129Y-91930050D01*
X127835303Y-91943137D01*
X127864493Y-91945211D01*
X127878829Y-91941951D01*
X127992375Y-91902887D01*
X128178262Y-91901717D01*
X128237399Y-91930328D01*
X128263935Y-91955866D01*
X128294626Y-92015298D01*
X128295353Y-92065934D01*
X128267012Y-92124516D01*
X128241474Y-92151051D01*
X128176520Y-92184593D01*
X128014049Y-92226514D01*
X128006732Y-92227034D01*
X127995756Y-92231233D01*
X127994505Y-92231557D01*
X127994069Y-92231879D01*
X127993000Y-92232289D01*
X127907781Y-92276296D01*
X127899158Y-92279868D01*
X127896261Y-92282244D01*
X127894842Y-92282978D01*
X127893542Y-92284476D01*
X127887793Y-92289195D01*
X127845031Y-92333626D01*
X127838719Y-92339101D01*
X127836745Y-92342235D01*
X127835609Y-92343417D01*
X127834851Y-92345244D01*
X127830887Y-92351544D01*
X127793911Y-92427972D01*
X127792752Y-92429132D01*
X127789189Y-92437731D01*
X127782775Y-92450991D01*
X127782584Y-92453678D01*
X127781553Y-92456168D01*
X127780112Y-92470800D01*
X127680112Y-92470800D01*
X127680112Y-91652942D01*
X130300952Y-91652942D01*
X130300952Y-92902942D01*
G37*
G36*
X130332243Y-97902942D02*
G01*
X127669987Y-97902942D01*
X127669987Y-97718562D01*
X127769987Y-97718562D01*
X127772062Y-97747752D01*
X127785148Y-97773925D01*
X127807255Y-97793099D01*
X127835018Y-97802353D01*
X127864208Y-97800278D01*
X127890381Y-97787192D01*
X127909555Y-97765085D01*
X127915549Y-97751659D01*
X128144001Y-97062869D01*
X128379241Y-97765084D01*
X128398415Y-97787191D01*
X128424588Y-97800278D01*
X128453778Y-97802353D01*
X128481540Y-97793099D01*
X128503648Y-97773925D01*
X128516734Y-97747751D01*
X128518809Y-97718561D01*
X128515549Y-97704225D01*
X128351210Y-97213657D01*
X128626541Y-97213657D01*
X128627792Y-97338058D01*
X128626630Y-97345873D01*
X128627962Y-97354884D01*
X128627982Y-97356860D01*
X128628405Y-97357881D01*
X128628780Y-97360418D01*
X128671541Y-97526147D01*
X128672061Y-97533466D01*
X128676261Y-97544441D01*
X128676584Y-97545693D01*
X128676906Y-97546128D01*
X128677316Y-97547198D01*
X128721322Y-97632415D01*
X128724895Y-97641039D01*
X128727271Y-97643935D01*
X128728005Y-97645355D01*
X128729503Y-97646654D01*
X128734222Y-97652404D01*
X128812901Y-97729431D01*
X128813720Y-97731068D01*
X128821203Y-97737558D01*
X128831303Y-97747446D01*
X128833791Y-97748476D01*
X128835827Y-97750242D01*
X128849253Y-97756236D01*
X128977699Y-97797686D01*
X128986909Y-97801501D01*
X128990667Y-97801871D01*
X128992161Y-97802353D01*
X128994135Y-97802212D01*
X129001541Y-97802942D01*
X129087546Y-97801706D01*
X129096635Y-97802353D01*
X129100280Y-97801524D01*
X129101887Y-97801501D01*
X129103718Y-97800742D01*
X129110972Y-97799093D01*
X129228547Y-97758644D01*
X129230458Y-97758644D01*
X129239823Y-97754764D01*
X129252970Y-97750242D01*
X129255006Y-97748475D01*
X129257495Y-97747445D01*
X129268860Y-97738118D01*
X129321044Y-97683896D01*
X129332243Y-97656859D01*
X129332243Y-97627597D01*
X129321044Y-97600560D01*
X129300352Y-97579868D01*
X129273315Y-97568669D01*
X129244053Y-97568669D01*
X129217016Y-97579868D01*
X129205651Y-97589195D01*
X129176759Y-97619215D01*
X129078352Y-97653069D01*
X129016480Y-97653958D01*
X128914893Y-97621175D01*
X128850223Y-97557863D01*
X128816318Y-97492208D01*
X128776497Y-97337873D01*
X128775385Y-97227371D01*
X128778704Y-97213657D01*
X129526541Y-97213657D01*
X129527792Y-97338058D01*
X129526630Y-97345873D01*
X129527962Y-97354884D01*
X129527982Y-97356860D01*
X129528405Y-97357881D01*
X129528780Y-97360418D01*
X129571541Y-97526147D01*
X129572061Y-97533466D01*
X129576261Y-97544441D01*
X129576584Y-97545693D01*
X129576906Y-97546128D01*
X129577316Y-97547198D01*
X129621322Y-97632415D01*
X129624895Y-97641039D01*
X129627271Y-97643935D01*
X129628005Y-97645355D01*
X129629503Y-97646654D01*
X129634222Y-97652404D01*
X129712901Y-97729431D01*
X129713720Y-97731068D01*
X129721203Y-97737558D01*
X129731303Y-97747446D01*
X129733791Y-97748476D01*
X129735827Y-97750242D01*
X129749253Y-97756236D01*
X129877699Y-97797686D01*
X129886909Y-97801501D01*
X129890667Y-97801871D01*
X129892161Y-97802353D01*
X129894135Y-97802212D01*
X129901541Y-97802942D01*
X129987546Y-97801706D01*
X129996635Y-97802353D01*
X130000280Y-97801524D01*
X130001887Y-97801501D01*
X130003718Y-97800742D01*
X130010972Y-97799093D01*
X130128547Y-97758644D01*
X130130458Y-97758644D01*
X130139823Y-97754764D01*
X130152970Y-97750242D01*
X130155006Y-97748475D01*
X130157495Y-97747445D01*
X130168860Y-97738118D01*
X130221044Y-97683896D01*
X130232243Y-97656859D01*
X130232243Y-97627597D01*
X130221044Y-97600560D01*
X130200352Y-97579868D01*
X130173315Y-97568669D01*
X130144053Y-97568669D01*
X130117016Y-97579868D01*
X130105651Y-97589195D01*
X130076759Y-97619215D01*
X129978352Y-97653069D01*
X129916480Y-97653958D01*
X129814893Y-97621175D01*
X129750223Y-97557863D01*
X129716318Y-97492208D01*
X129676497Y-97337873D01*
X129675385Y-97227371D01*
X129712670Y-97073308D01*
X129746673Y-97003024D01*
X129811431Y-96936878D01*
X129910445Y-96902814D01*
X129972315Y-96901925D01*
X130074191Y-96934802D01*
X130117016Y-96976017D01*
X130144053Y-96987216D01*
X130173315Y-96987216D01*
X130200352Y-96976017D01*
X130221044Y-96955325D01*
X130232243Y-96928288D01*
X130232243Y-96899026D01*
X130221044Y-96871989D01*
X130211717Y-96860624D01*
X130175601Y-96825865D01*
X130175077Y-96824817D01*
X130169354Y-96819853D01*
X130157495Y-96808440D01*
X130155006Y-96807409D01*
X130152970Y-96805643D01*
X130139544Y-96799649D01*
X130011093Y-96758196D01*
X130001887Y-96754383D01*
X129998129Y-96754012D01*
X129996636Y-96753531D01*
X129994660Y-96753671D01*
X129987255Y-96752942D01*
X129901252Y-96754177D01*
X129892160Y-96753531D01*
X129888514Y-96754359D01*
X129886909Y-96754383D01*
X129885078Y-96755141D01*
X129877823Y-96756791D01*
X129760249Y-96797241D01*
X129758339Y-96797241D01*
X129748973Y-96801120D01*
X129735827Y-96805643D01*
X129733791Y-96807408D01*
X129731303Y-96808439D01*
X129719938Y-96817766D01*
X129635394Y-96904121D01*
X129628005Y-96910530D01*
X129625996Y-96913720D01*
X129624895Y-96914846D01*
X129624137Y-96916673D01*
X129620173Y-96922973D01*
X129580595Y-97004777D01*
X129576584Y-97010192D01*
X129572651Y-97021198D01*
X129572061Y-97022419D01*
X129572022Y-97022958D01*
X129571637Y-97024038D01*
X129531125Y-97191436D01*
X129527982Y-97199025D01*
X129527085Y-97208130D01*
X129526630Y-97210012D01*
X129526792Y-97211103D01*
X129526541Y-97213657D01*
X128778704Y-97213657D01*
X128812670Y-97073308D01*
X128846673Y-97003024D01*
X128911431Y-96936878D01*
X129010445Y-96902814D01*
X129072315Y-96901925D01*
X129174191Y-96934802D01*
X129217016Y-96976017D01*
X129244053Y-96987216D01*
X129273315Y-96987216D01*
X129300352Y-96976017D01*
X129321044Y-96955325D01*
X129332243Y-96928288D01*
X129332243Y-96899026D01*
X129321044Y-96871989D01*
X129311717Y-96860624D01*
X129275601Y-96825865D01*
X129275077Y-96824817D01*
X129269354Y-96819853D01*
X129257495Y-96808440D01*
X129255006Y-96807409D01*
X129252970Y-96805643D01*
X129239544Y-96799649D01*
X129111093Y-96758196D01*
X129101887Y-96754383D01*
X129098129Y-96754012D01*
X129096636Y-96753531D01*
X129094660Y-96753671D01*
X129087255Y-96752942D01*
X129001252Y-96754177D01*
X128992160Y-96753531D01*
X128988514Y-96754359D01*
X128986909Y-96754383D01*
X128985078Y-96755141D01*
X128977823Y-96756791D01*
X128860249Y-96797241D01*
X128858339Y-96797241D01*
X128848973Y-96801120D01*
X128835827Y-96805643D01*
X128833791Y-96807408D01*
X128831303Y-96808439D01*
X128819938Y-96817766D01*
X128735394Y-96904121D01*
X128728005Y-96910530D01*
X128725996Y-96913720D01*
X128724895Y-96914846D01*
X128724137Y-96916673D01*
X128720173Y-96922973D01*
X128680595Y-97004777D01*
X128676584Y-97010192D01*
X128672651Y-97021198D01*
X128672061Y-97022419D01*
X128672022Y-97022958D01*
X128671637Y-97024038D01*
X128631125Y-97191436D01*
X128627982Y-97199025D01*
X128627085Y-97208130D01*
X128626630Y-97210012D01*
X128626792Y-97211103D01*
X128626541Y-97213657D01*
X128351210Y-97213657D01*
X128217103Y-96813332D01*
X128216734Y-96808133D01*
X128212575Y-96799815D01*
X128209555Y-96790799D01*
X128206043Y-96786750D01*
X128203648Y-96781959D01*
X128196544Y-96775797D01*
X128190381Y-96768692D01*
X128185587Y-96766295D01*
X128181540Y-96762785D01*
X128172618Y-96759811D01*
X128164208Y-96755606D01*
X128158863Y-96755226D01*
X128153778Y-96753531D01*
X128144398Y-96754197D01*
X128135018Y-96753531D01*
X128129932Y-96755226D01*
X128124588Y-96755606D01*
X128116180Y-96759810D01*
X128107255Y-96762785D01*
X128103204Y-96766298D01*
X128098415Y-96768693D01*
X128092256Y-96775793D01*
X128085148Y-96781959D01*
X128082751Y-96786752D01*
X128079241Y-96790800D01*
X128073247Y-96804225D01*
X127769987Y-97718562D01*
X127669987Y-97718562D01*
X127669987Y-96652942D01*
X130332243Y-96652942D01*
X130332243Y-97902942D01*
G37*
%LPC*%
D12*
X125770000Y-97310000D03*
X125770000Y-94810000D03*
X125770000Y-92310000D03*
D13*
X125770000Y-89810000D03*
%LPD*%
M02*
