G04 #@! TF.GenerationSoftware,KiCad,Pcbnew,8.0.3*
G04 #@! TF.CreationDate,2024-07-19T17:45:39+03:00*
G04 #@! TF.ProjectId,B-TH09C-Brk-01Mbr-R01,422d5448-3039-4432-9d42-726b2d30314d,rev?*
G04 #@! TF.SameCoordinates,Original*
G04 #@! TF.FileFunction,Legend,Top*
G04 #@! TF.FilePolarity,Positive*
%FSLAX46Y46*%
G04 Gerber Fmt 4.6, Leading zero omitted, Abs format (unit mm)*
G04 Created by KiCad (PCBNEW 8.0.3) date 2024-07-19 17:45:39*
%MOMM*%
%LPD*%
G01*
G04 APERTURE LIST*
G04 Aperture macros list*
%AMRoundRect*
0 Rectangle with rounded corners*
0 $1 Rounding radius*
0 $2 $3 $4 $5 $6 $7 $8 $9 X,Y pos of 4 corners*
0 Add a 4 corners polygon primitive as box body*
4,1,4,$2,$3,$4,$5,$6,$7,$8,$9,$2,$3,0*
0 Add four circle primitives for the rounded corners*
1,1,$1+$1,$2,$3*
1,1,$1+$1,$4,$5*
1,1,$1+$1,$6,$7*
1,1,$1+$1,$8,$9*
0 Add four rect primitives between the rounded corners*
20,1,$1+$1,$2,$3,$4,$5,0*
20,1,$1+$1,$4,$5,$6,$7,0*
20,1,$1+$1,$6,$7,$8,$9,0*
20,1,$1+$1,$8,$9,$2,$3,0*%
G04 Aperture macros list end*
%ADD10C,0.000000*%
%ADD11C,0.100000*%
%ADD12C,0.120000*%
%ADD13C,1.000000*%
%ADD14RoundRect,0.150000X-0.150000X0.512500X-0.150000X-0.512500X0.150000X-0.512500X0.150000X0.512500X0*%
%ADD15RoundRect,0.100000X0.200000X0.100000X-0.200000X0.100000X-0.200000X-0.100000X0.200000X-0.100000X0*%
%ADD16RoundRect,0.175000X0.175000X0.625000X-0.175000X0.625000X-0.175000X-0.625000X0.175000X-0.625000X0*%
%ADD17RoundRect,0.200000X-0.200000X-0.275000X0.200000X-0.275000X0.200000X0.275000X-0.200000X0.275000X0*%
%ADD18RoundRect,0.218750X-0.256250X0.218750X-0.256250X-0.218750X0.256250X-0.218750X0.256250X0.218750X0*%
%ADD19RoundRect,0.225000X0.250000X-0.225000X0.250000X0.225000X-0.250000X0.225000X-0.250000X-0.225000X0*%
%ADD20RoundRect,0.070000X-0.300000X0.650000X-0.300000X-0.650000X0.300000X-0.650000X0.300000X0.650000X0*%
%ADD21RoundRect,0.200000X-0.275000X0.200000X-0.275000X-0.200000X0.275000X-0.200000X0.275000X0.200000X0*%
%ADD22RoundRect,0.200000X0.275000X-0.200000X0.275000X0.200000X-0.275000X0.200000X-0.275000X-0.200000X0*%
%ADD23O,1.950000X1.700000*%
%ADD24RoundRect,0.250000X0.725000X-0.600000X0.725000X0.600000X-0.725000X0.600000X-0.725000X-0.600000X0*%
%ADD25RoundRect,0.225000X0.225000X0.250000X-0.225000X0.250000X-0.225000X-0.250000X0.225000X-0.250000X0*%
G04 APERTURE END LIST*
D10*
G36*
X140424745Y-99111293D02*
G01*
X140550000Y-99120000D01*
X140667990Y-99134905D01*
X140778512Y-99156326D01*
X140881361Y-99184584D01*
X140929844Y-99201376D01*
X140976334Y-99219998D01*
X141020803Y-99240490D01*
X141063227Y-99262890D01*
X141103581Y-99287240D01*
X141141838Y-99313579D01*
X141177974Y-99341948D01*
X141211963Y-99372386D01*
X141243779Y-99404933D01*
X141273398Y-99439630D01*
X141300793Y-99476516D01*
X141325939Y-99515631D01*
X141348811Y-99557016D01*
X141369384Y-99600710D01*
X141387631Y-99646754D01*
X141403528Y-99695187D01*
X141417050Y-99746050D01*
X141428169Y-99799382D01*
X141436862Y-99855224D01*
X141443103Y-99913615D01*
X141446866Y-99974596D01*
X141448126Y-100038207D01*
X141447400Y-100079794D01*
X141445244Y-100120177D01*
X141441694Y-100159369D01*
X141436786Y-100197381D01*
X141430555Y-100234225D01*
X141423038Y-100269913D01*
X141414269Y-100304457D01*
X141404284Y-100337868D01*
X141393119Y-100370159D01*
X141380810Y-100401341D01*
X141367391Y-100431427D01*
X141352900Y-100460428D01*
X141337370Y-100488355D01*
X141320839Y-100515222D01*
X141284912Y-100565819D01*
X141245403Y-100612314D01*
X141202599Y-100654802D01*
X141156783Y-100693378D01*
X141108240Y-100728137D01*
X141057256Y-100759173D01*
X141004115Y-100786582D01*
X140949102Y-100810459D01*
X140892501Y-100830899D01*
X140923001Y-100837893D01*
X140953014Y-100846030D01*
X140982507Y-100855310D01*
X141011451Y-100865737D01*
X141039812Y-100877314D01*
X141067560Y-100890041D01*
X141094663Y-100903922D01*
X141121089Y-100918960D01*
X141146807Y-100935155D01*
X141171786Y-100952512D01*
X141195993Y-100971032D01*
X141219398Y-100990717D01*
X141241968Y-101011570D01*
X141263673Y-101033594D01*
X141284480Y-101056790D01*
X141304358Y-101081162D01*
X141323276Y-101106710D01*
X141341202Y-101133439D01*
X141358105Y-101161350D01*
X141373952Y-101190445D01*
X141388713Y-101220728D01*
X141402356Y-101252199D01*
X141414850Y-101284863D01*
X141426162Y-101318720D01*
X141436261Y-101353774D01*
X141445116Y-101390027D01*
X141452695Y-101427481D01*
X141458967Y-101466138D01*
X141463900Y-101506001D01*
X141467463Y-101547073D01*
X141469624Y-101589356D01*
X141470351Y-101632851D01*
X141469137Y-101693550D01*
X141465502Y-101752032D01*
X141459455Y-101808317D01*
X141451006Y-101862423D01*
X141440163Y-101914369D01*
X141426937Y-101964175D01*
X141411338Y-102011859D01*
X141393374Y-102057441D01*
X141373055Y-102100939D01*
X141350391Y-102142373D01*
X141325391Y-102181761D01*
X141298064Y-102219122D01*
X141268420Y-102254476D01*
X141236470Y-102287841D01*
X141202221Y-102319237D01*
X141165683Y-102348681D01*
X141126867Y-102376195D01*
X141085782Y-102401795D01*
X141042436Y-102425502D01*
X140996840Y-102447334D01*
X140949003Y-102467310D01*
X140898935Y-102485450D01*
X140846644Y-102501772D01*
X140792141Y-102516295D01*
X140735436Y-102529038D01*
X140676536Y-102540021D01*
X140615453Y-102549262D01*
X140552195Y-102556780D01*
X140419194Y-102566724D01*
X140277610Y-102570005D01*
X137195744Y-102570005D01*
X137195744Y-100625317D01*
X137797671Y-100625317D01*
X137797671Y-102095871D01*
X140253534Y-102095871D01*
X140327385Y-102094034D01*
X140396806Y-102088466D01*
X140461750Y-102079084D01*
X140522172Y-102065803D01*
X140550673Y-102057675D01*
X140578025Y-102048540D01*
X140604224Y-102038389D01*
X140629264Y-102027210D01*
X140653138Y-102014994D01*
X140675841Y-102001729D01*
X140697368Y-101987406D01*
X140717711Y-101972013D01*
X140736867Y-101955540D01*
X140754829Y-101937978D01*
X140771590Y-101919314D01*
X140787147Y-101899539D01*
X140801491Y-101878643D01*
X140814619Y-101856614D01*
X140826524Y-101833442D01*
X140837200Y-101809117D01*
X140846642Y-101783628D01*
X140854843Y-101756964D01*
X140861799Y-101729116D01*
X140867502Y-101700072D01*
X140871949Y-101669822D01*
X140875132Y-101638356D01*
X140877046Y-101605663D01*
X140877685Y-101571732D01*
X140877137Y-101537908D01*
X140875494Y-101505524D01*
X140872755Y-101474558D01*
X140868921Y-101444984D01*
X140863992Y-101416779D01*
X140857969Y-101389918D01*
X140850851Y-101364378D01*
X140842640Y-101340135D01*
X140833336Y-101317164D01*
X140822939Y-101295441D01*
X140811449Y-101274943D01*
X140798867Y-101255644D01*
X140785193Y-101237522D01*
X140770427Y-101220552D01*
X140754570Y-101204710D01*
X140737622Y-101189971D01*
X140719583Y-101176313D01*
X140700454Y-101163710D01*
X140680235Y-101152139D01*
X140658926Y-101141575D01*
X140636528Y-101131995D01*
X140613041Y-101123374D01*
X140588466Y-101115688D01*
X140562802Y-101108914D01*
X140536051Y-101103027D01*
X140508211Y-101098002D01*
X140449272Y-101090447D01*
X140385986Y-101086055D01*
X140318356Y-101084634D01*
X138399598Y-101084634D01*
X138399598Y-100625317D01*
X140203526Y-100625317D01*
X140275186Y-100623433D01*
X140343500Y-100617710D01*
X140408292Y-100608042D01*
X140469387Y-100594324D01*
X140498493Y-100585913D01*
X140526608Y-100576449D01*
X140553710Y-100565920D01*
X140579778Y-100554312D01*
X140604789Y-100541612D01*
X140628721Y-100527807D01*
X140651552Y-100512884D01*
X140673261Y-100496829D01*
X140693825Y-100479629D01*
X140713221Y-100461271D01*
X140731429Y-100441741D01*
X140748426Y-100421027D01*
X140764190Y-100399115D01*
X140778698Y-100375993D01*
X140791930Y-100351646D01*
X140803862Y-100326061D01*
X140814473Y-100299226D01*
X140823741Y-100271127D01*
X140831643Y-100241750D01*
X140838158Y-100211084D01*
X140843264Y-100179113D01*
X140846938Y-100145826D01*
X140849159Y-100111209D01*
X140849904Y-100075249D01*
X140849303Y-100044205D01*
X140847504Y-100014271D01*
X140844515Y-99985438D01*
X140840343Y-99957699D01*
X140834995Y-99931045D01*
X140828478Y-99905468D01*
X140820799Y-99880960D01*
X140811965Y-99857513D01*
X140801984Y-99835119D01*
X140790862Y-99813769D01*
X140778607Y-99793455D01*
X140765225Y-99774169D01*
X140750725Y-99755904D01*
X140735112Y-99738651D01*
X140718395Y-99722401D01*
X140700579Y-99707147D01*
X140681674Y-99692881D01*
X140661684Y-99679594D01*
X140640619Y-99667278D01*
X140618484Y-99655926D01*
X140595287Y-99645528D01*
X140571034Y-99636077D01*
X140545734Y-99627565D01*
X140519394Y-99619983D01*
X140492019Y-99613324D01*
X140463618Y-99607580D01*
X140434198Y-99602741D01*
X140403765Y-99598800D01*
X140339891Y-99593580D01*
X140272054Y-99591855D01*
X135993742Y-99591855D01*
X135993742Y-99108461D01*
X140292427Y-99108461D01*
X140424745Y-99111293D01*
G37*
G36*
X136617780Y-99786882D02*
G01*
X136639601Y-99788542D01*
X136661105Y-99791274D01*
X136682265Y-99795053D01*
X136703053Y-99799851D01*
X136723443Y-99805641D01*
X136743408Y-99812396D01*
X136762921Y-99820090D01*
X136781954Y-99828695D01*
X136800481Y-99838184D01*
X136818475Y-99848530D01*
X136835909Y-99859706D01*
X136852755Y-99871686D01*
X136868987Y-99884442D01*
X136884578Y-99897947D01*
X136899501Y-99912175D01*
X136913728Y-99927097D01*
X136927233Y-99942688D01*
X136939989Y-99958920D01*
X136951969Y-99975767D01*
X136963145Y-99993200D01*
X136973491Y-100011194D01*
X136982980Y-100029721D01*
X136991585Y-100048754D01*
X136999279Y-100068267D01*
X137006034Y-100088232D01*
X137011824Y-100108622D01*
X137016622Y-100129410D01*
X137020401Y-100150570D01*
X137023133Y-100172074D01*
X137024793Y-100193895D01*
X137025352Y-100216007D01*
X137024793Y-100238118D01*
X137023133Y-100259939D01*
X137020401Y-100281443D01*
X137016622Y-100302603D01*
X137011824Y-100323391D01*
X137006034Y-100343781D01*
X136999279Y-100363746D01*
X136991585Y-100383259D01*
X136982980Y-100402292D01*
X136973491Y-100420819D01*
X136963145Y-100438813D01*
X136951969Y-100456247D01*
X136939989Y-100473093D01*
X136927233Y-100489325D01*
X136913728Y-100504916D01*
X136899501Y-100519839D01*
X136884578Y-100534066D01*
X136868987Y-100547571D01*
X136852755Y-100560327D01*
X136835909Y-100572307D01*
X136818475Y-100583483D01*
X136800481Y-100593829D01*
X136781954Y-100603318D01*
X136762921Y-100611923D01*
X136743408Y-100619617D01*
X136723443Y-100626372D01*
X136703053Y-100632162D01*
X136682265Y-100636960D01*
X136661105Y-100640739D01*
X136639601Y-100643471D01*
X136617780Y-100645131D01*
X136595668Y-100645690D01*
X136573557Y-100645131D01*
X136551736Y-100643471D01*
X136530232Y-100640739D01*
X136509072Y-100636960D01*
X136488284Y-100632162D01*
X136467894Y-100626372D01*
X136447929Y-100619617D01*
X136428416Y-100611923D01*
X136409383Y-100603318D01*
X136390856Y-100593829D01*
X136372862Y-100583483D01*
X136355429Y-100572307D01*
X136338582Y-100560327D01*
X136322350Y-100547571D01*
X136306759Y-100534066D01*
X136291837Y-100519839D01*
X136277609Y-100504916D01*
X136264104Y-100489325D01*
X136251348Y-100473093D01*
X136239368Y-100456247D01*
X136228192Y-100438813D01*
X136217846Y-100420819D01*
X136208357Y-100402292D01*
X136199752Y-100383259D01*
X136192058Y-100363746D01*
X136185303Y-100343781D01*
X136179513Y-100323391D01*
X136174715Y-100302603D01*
X136170936Y-100281443D01*
X136168204Y-100259939D01*
X136166544Y-100238118D01*
X136165985Y-100216007D01*
X136166544Y-100193895D01*
X136168204Y-100172074D01*
X136170936Y-100150570D01*
X136174715Y-100129410D01*
X136179513Y-100108622D01*
X136185303Y-100088232D01*
X136192058Y-100068267D01*
X136199752Y-100048754D01*
X136208357Y-100029721D01*
X136217846Y-100011194D01*
X136228192Y-99993200D01*
X136239368Y-99975767D01*
X136251348Y-99958920D01*
X136264104Y-99942688D01*
X136277609Y-99927097D01*
X136291837Y-99912175D01*
X136306759Y-99897947D01*
X136322350Y-99884442D01*
X136338582Y-99871686D01*
X136355429Y-99859706D01*
X136372862Y-99848530D01*
X136390856Y-99838184D01*
X136409383Y-99828695D01*
X136428416Y-99820090D01*
X136447929Y-99812396D01*
X136467894Y-99805641D01*
X136488284Y-99799851D01*
X136509072Y-99795053D01*
X136530232Y-99791274D01*
X136551736Y-99788542D01*
X136573557Y-99786882D01*
X136595668Y-99786323D01*
X136617780Y-99786882D01*
G37*
D11*
X129192857Y-102372371D02*
X129192857Y-102858085D01*
X129192857Y-102858085D02*
X129221428Y-102915228D01*
X129221428Y-102915228D02*
X129250000Y-102943800D01*
X129250000Y-102943800D02*
X129307142Y-102972371D01*
X129307142Y-102972371D02*
X129421428Y-102972371D01*
X129421428Y-102972371D02*
X129478571Y-102943800D01*
X129478571Y-102943800D02*
X129507142Y-102915228D01*
X129507142Y-102915228D02*
X129535714Y-102858085D01*
X129535714Y-102858085D02*
X129535714Y-102372371D01*
X129792856Y-102429514D02*
X129821428Y-102400942D01*
X129821428Y-102400942D02*
X129878571Y-102372371D01*
X129878571Y-102372371D02*
X130021428Y-102372371D01*
X130021428Y-102372371D02*
X130078571Y-102400942D01*
X130078571Y-102400942D02*
X130107142Y-102429514D01*
X130107142Y-102429514D02*
X130135713Y-102486657D01*
X130135713Y-102486657D02*
X130135713Y-102543800D01*
X130135713Y-102543800D02*
X130107142Y-102629514D01*
X130107142Y-102629514D02*
X129764285Y-102972371D01*
X129764285Y-102972371D02*
X130135713Y-102972371D01*
X135942857Y-90522371D02*
X135942857Y-91008085D01*
X135942857Y-91008085D02*
X135971428Y-91065228D01*
X135971428Y-91065228D02*
X136000000Y-91093800D01*
X136000000Y-91093800D02*
X136057142Y-91122371D01*
X136057142Y-91122371D02*
X136171428Y-91122371D01*
X136171428Y-91122371D02*
X136228571Y-91093800D01*
X136228571Y-91093800D02*
X136257142Y-91065228D01*
X136257142Y-91065228D02*
X136285714Y-91008085D01*
X136285714Y-91008085D02*
X136285714Y-90522371D01*
X136885713Y-91122371D02*
X136542856Y-91122371D01*
X136714285Y-91122371D02*
X136714285Y-90522371D01*
X136714285Y-90522371D02*
X136657142Y-90608085D01*
X136657142Y-90608085D02*
X136599999Y-90665228D01*
X136599999Y-90665228D02*
X136542856Y-90693800D01*
X127150000Y-85372371D02*
X126950000Y-85086657D01*
X126807143Y-85372371D02*
X126807143Y-84772371D01*
X126807143Y-84772371D02*
X127035714Y-84772371D01*
X127035714Y-84772371D02*
X127092857Y-84800942D01*
X127092857Y-84800942D02*
X127121428Y-84829514D01*
X127121428Y-84829514D02*
X127150000Y-84886657D01*
X127150000Y-84886657D02*
X127150000Y-84972371D01*
X127150000Y-84972371D02*
X127121428Y-85029514D01*
X127121428Y-85029514D02*
X127092857Y-85058085D01*
X127092857Y-85058085D02*
X127035714Y-85086657D01*
X127035714Y-85086657D02*
X126807143Y-85086657D01*
X127721428Y-85372371D02*
X127378571Y-85372371D01*
X127550000Y-85372371D02*
X127550000Y-84772371D01*
X127550000Y-84772371D02*
X127492857Y-84858085D01*
X127492857Y-84858085D02*
X127435714Y-84915228D01*
X127435714Y-84915228D02*
X127378571Y-84943800D01*
X140880000Y-90332371D02*
X140880000Y-89732371D01*
X140880000Y-89732371D02*
X141108571Y-89732371D01*
X141108571Y-89732371D02*
X141165714Y-89760942D01*
X141165714Y-89760942D02*
X141194285Y-89789514D01*
X141194285Y-89789514D02*
X141222857Y-89846657D01*
X141222857Y-89846657D02*
X141222857Y-89932371D01*
X141222857Y-89932371D02*
X141194285Y-89989514D01*
X141194285Y-89989514D02*
X141165714Y-90018085D01*
X141165714Y-90018085D02*
X141108571Y-90046657D01*
X141108571Y-90046657D02*
X140880000Y-90046657D01*
X141422857Y-89732371D02*
X141565714Y-90332371D01*
X141565714Y-90332371D02*
X141680000Y-89903800D01*
X141680000Y-89903800D02*
X141794285Y-90332371D01*
X141794285Y-90332371D02*
X141937143Y-89732371D01*
X142508571Y-90332371D02*
X142308571Y-90046657D01*
X142165714Y-90332371D02*
X142165714Y-89732371D01*
X142165714Y-89732371D02*
X142394285Y-89732371D01*
X142394285Y-89732371D02*
X142451428Y-89760942D01*
X142451428Y-89760942D02*
X142479999Y-89789514D01*
X142479999Y-89789514D02*
X142508571Y-89846657D01*
X142508571Y-89846657D02*
X142508571Y-89932371D01*
X142508571Y-89932371D02*
X142479999Y-89989514D01*
X142479999Y-89989514D02*
X142451428Y-90018085D01*
X142451428Y-90018085D02*
X142394285Y-90046657D01*
X142394285Y-90046657D02*
X142165714Y-90046657D01*
X132270000Y-98665228D02*
X132241428Y-98693800D01*
X132241428Y-98693800D02*
X132155714Y-98722371D01*
X132155714Y-98722371D02*
X132098571Y-98722371D01*
X132098571Y-98722371D02*
X132012857Y-98693800D01*
X132012857Y-98693800D02*
X131955714Y-98636657D01*
X131955714Y-98636657D02*
X131927143Y-98579514D01*
X131927143Y-98579514D02*
X131898571Y-98465228D01*
X131898571Y-98465228D02*
X131898571Y-98379514D01*
X131898571Y-98379514D02*
X131927143Y-98265228D01*
X131927143Y-98265228D02*
X131955714Y-98208085D01*
X131955714Y-98208085D02*
X132012857Y-98150942D01*
X132012857Y-98150942D02*
X132098571Y-98122371D01*
X132098571Y-98122371D02*
X132155714Y-98122371D01*
X132155714Y-98122371D02*
X132241428Y-98150942D01*
X132241428Y-98150942D02*
X132270000Y-98179514D01*
X132498571Y-98179514D02*
X132527143Y-98150942D01*
X132527143Y-98150942D02*
X132584286Y-98122371D01*
X132584286Y-98122371D02*
X132727143Y-98122371D01*
X132727143Y-98122371D02*
X132784286Y-98150942D01*
X132784286Y-98150942D02*
X132812857Y-98179514D01*
X132812857Y-98179514D02*
X132841428Y-98236657D01*
X132841428Y-98236657D02*
X132841428Y-98293800D01*
X132841428Y-98293800D02*
X132812857Y-98379514D01*
X132812857Y-98379514D02*
X132470000Y-98722371D01*
X132470000Y-98722371D02*
X132841428Y-98722371D01*
X138202857Y-87779514D02*
X138145714Y-87750942D01*
X138145714Y-87750942D02*
X138088571Y-87693800D01*
X138088571Y-87693800D02*
X138002857Y-87608085D01*
X138002857Y-87608085D02*
X137945714Y-87579514D01*
X137945714Y-87579514D02*
X137888571Y-87579514D01*
X137917142Y-87722371D02*
X137860000Y-87693800D01*
X137860000Y-87693800D02*
X137802857Y-87636657D01*
X137802857Y-87636657D02*
X137774285Y-87522371D01*
X137774285Y-87522371D02*
X137774285Y-87322371D01*
X137774285Y-87322371D02*
X137802857Y-87208085D01*
X137802857Y-87208085D02*
X137860000Y-87150942D01*
X137860000Y-87150942D02*
X137917142Y-87122371D01*
X137917142Y-87122371D02*
X138031428Y-87122371D01*
X138031428Y-87122371D02*
X138088571Y-87150942D01*
X138088571Y-87150942D02*
X138145714Y-87208085D01*
X138145714Y-87208085D02*
X138174285Y-87322371D01*
X138174285Y-87322371D02*
X138174285Y-87522371D01*
X138174285Y-87522371D02*
X138145714Y-87636657D01*
X138145714Y-87636657D02*
X138088571Y-87693800D01*
X138088571Y-87693800D02*
X138031428Y-87722371D01*
X138031428Y-87722371D02*
X137917142Y-87722371D01*
X138745713Y-87722371D02*
X138402856Y-87722371D01*
X138574285Y-87722371D02*
X138574285Y-87122371D01*
X138574285Y-87122371D02*
X138517142Y-87208085D01*
X138517142Y-87208085D02*
X138459999Y-87265228D01*
X138459999Y-87265228D02*
X138402856Y-87293800D01*
X139700000Y-88022371D02*
X139500000Y-87736657D01*
X139357143Y-88022371D02*
X139357143Y-87422371D01*
X139357143Y-87422371D02*
X139585714Y-87422371D01*
X139585714Y-87422371D02*
X139642857Y-87450942D01*
X139642857Y-87450942D02*
X139671428Y-87479514D01*
X139671428Y-87479514D02*
X139700000Y-87536657D01*
X139700000Y-87536657D02*
X139700000Y-87622371D01*
X139700000Y-87622371D02*
X139671428Y-87679514D01*
X139671428Y-87679514D02*
X139642857Y-87708085D01*
X139642857Y-87708085D02*
X139585714Y-87736657D01*
X139585714Y-87736657D02*
X139357143Y-87736657D01*
X139928571Y-87479514D02*
X139957143Y-87450942D01*
X139957143Y-87450942D02*
X140014286Y-87422371D01*
X140014286Y-87422371D02*
X140157143Y-87422371D01*
X140157143Y-87422371D02*
X140214286Y-87450942D01*
X140214286Y-87450942D02*
X140242857Y-87479514D01*
X140242857Y-87479514D02*
X140271428Y-87536657D01*
X140271428Y-87536657D02*
X140271428Y-87593800D01*
X140271428Y-87593800D02*
X140242857Y-87679514D01*
X140242857Y-87679514D02*
X139900000Y-88022371D01*
X139900000Y-88022371D02*
X140271428Y-88022371D01*
X130800000Y-88672371D02*
X130600000Y-88386657D01*
X130457143Y-88672371D02*
X130457143Y-88072371D01*
X130457143Y-88072371D02*
X130685714Y-88072371D01*
X130685714Y-88072371D02*
X130742857Y-88100942D01*
X130742857Y-88100942D02*
X130771428Y-88129514D01*
X130771428Y-88129514D02*
X130800000Y-88186657D01*
X130800000Y-88186657D02*
X130800000Y-88272371D01*
X130800000Y-88272371D02*
X130771428Y-88329514D01*
X130771428Y-88329514D02*
X130742857Y-88358085D01*
X130742857Y-88358085D02*
X130685714Y-88386657D01*
X130685714Y-88386657D02*
X130457143Y-88386657D01*
X131000000Y-88072371D02*
X131371428Y-88072371D01*
X131371428Y-88072371D02*
X131171428Y-88300942D01*
X131171428Y-88300942D02*
X131257143Y-88300942D01*
X131257143Y-88300942D02*
X131314286Y-88329514D01*
X131314286Y-88329514D02*
X131342857Y-88358085D01*
X131342857Y-88358085D02*
X131371428Y-88415228D01*
X131371428Y-88415228D02*
X131371428Y-88558085D01*
X131371428Y-88558085D02*
X131342857Y-88615228D01*
X131342857Y-88615228D02*
X131314286Y-88643800D01*
X131314286Y-88643800D02*
X131257143Y-88672371D01*
X131257143Y-88672371D02*
X131085714Y-88672371D01*
X131085714Y-88672371D02*
X131028571Y-88643800D01*
X131028571Y-88643800D02*
X131000000Y-88615228D01*
X130850000Y-95722371D02*
X130650000Y-95436657D01*
X130507143Y-95722371D02*
X130507143Y-95122371D01*
X130507143Y-95122371D02*
X130735714Y-95122371D01*
X130735714Y-95122371D02*
X130792857Y-95150942D01*
X130792857Y-95150942D02*
X130821428Y-95179514D01*
X130821428Y-95179514D02*
X130850000Y-95236657D01*
X130850000Y-95236657D02*
X130850000Y-95322371D01*
X130850000Y-95322371D02*
X130821428Y-95379514D01*
X130821428Y-95379514D02*
X130792857Y-95408085D01*
X130792857Y-95408085D02*
X130735714Y-95436657D01*
X130735714Y-95436657D02*
X130507143Y-95436657D01*
X131364286Y-95322371D02*
X131364286Y-95722371D01*
X131221428Y-95093800D02*
X131078571Y-95522371D01*
X131078571Y-95522371D02*
X131450000Y-95522371D01*
X134500000Y-99465228D02*
X134471428Y-99493800D01*
X134471428Y-99493800D02*
X134385714Y-99522371D01*
X134385714Y-99522371D02*
X134328571Y-99522371D01*
X134328571Y-99522371D02*
X134242857Y-99493800D01*
X134242857Y-99493800D02*
X134185714Y-99436657D01*
X134185714Y-99436657D02*
X134157143Y-99379514D01*
X134157143Y-99379514D02*
X134128571Y-99265228D01*
X134128571Y-99265228D02*
X134128571Y-99179514D01*
X134128571Y-99179514D02*
X134157143Y-99065228D01*
X134157143Y-99065228D02*
X134185714Y-99008085D01*
X134185714Y-99008085D02*
X134242857Y-98950942D01*
X134242857Y-98950942D02*
X134328571Y-98922371D01*
X134328571Y-98922371D02*
X134385714Y-98922371D01*
X134385714Y-98922371D02*
X134471428Y-98950942D01*
X134471428Y-98950942D02*
X134500000Y-98979514D01*
X134700000Y-98922371D02*
X135071428Y-98922371D01*
X135071428Y-98922371D02*
X134871428Y-99150942D01*
X134871428Y-99150942D02*
X134957143Y-99150942D01*
X134957143Y-99150942D02*
X135014286Y-99179514D01*
X135014286Y-99179514D02*
X135042857Y-99208085D01*
X135042857Y-99208085D02*
X135071428Y-99265228D01*
X135071428Y-99265228D02*
X135071428Y-99408085D01*
X135071428Y-99408085D02*
X135042857Y-99465228D01*
X135042857Y-99465228D02*
X135014286Y-99493800D01*
X135014286Y-99493800D02*
X134957143Y-99522371D01*
X134957143Y-99522371D02*
X134785714Y-99522371D01*
X134785714Y-99522371D02*
X134728571Y-99493800D01*
X134728571Y-99493800D02*
X134700000Y-99465228D01*
X141510000Y-98752371D02*
X141310000Y-98466657D01*
X141167143Y-98752371D02*
X141167143Y-98152371D01*
X141167143Y-98152371D02*
X141395714Y-98152371D01*
X141395714Y-98152371D02*
X141452857Y-98180942D01*
X141452857Y-98180942D02*
X141481428Y-98209514D01*
X141481428Y-98209514D02*
X141510000Y-98266657D01*
X141510000Y-98266657D02*
X141510000Y-98352371D01*
X141510000Y-98352371D02*
X141481428Y-98409514D01*
X141481428Y-98409514D02*
X141452857Y-98438085D01*
X141452857Y-98438085D02*
X141395714Y-98466657D01*
X141395714Y-98466657D02*
X141167143Y-98466657D01*
X142052857Y-98152371D02*
X141767143Y-98152371D01*
X141767143Y-98152371D02*
X141738571Y-98438085D01*
X141738571Y-98438085D02*
X141767143Y-98409514D01*
X141767143Y-98409514D02*
X141824286Y-98380942D01*
X141824286Y-98380942D02*
X141967143Y-98380942D01*
X141967143Y-98380942D02*
X142024286Y-98409514D01*
X142024286Y-98409514D02*
X142052857Y-98438085D01*
X142052857Y-98438085D02*
X142081428Y-98495228D01*
X142081428Y-98495228D02*
X142081428Y-98638085D01*
X142081428Y-98638085D02*
X142052857Y-98695228D01*
X142052857Y-98695228D02*
X142024286Y-98723800D01*
X142024286Y-98723800D02*
X141967143Y-98752371D01*
X141967143Y-98752371D02*
X141824286Y-98752371D01*
X141824286Y-98752371D02*
X141767143Y-98723800D01*
X141767143Y-98723800D02*
X141738571Y-98695228D01*
X134042857Y-87779514D02*
X133985714Y-87750942D01*
X133985714Y-87750942D02*
X133928571Y-87693800D01*
X133928571Y-87693800D02*
X133842857Y-87608085D01*
X133842857Y-87608085D02*
X133785714Y-87579514D01*
X133785714Y-87579514D02*
X133728571Y-87579514D01*
X133757142Y-87722371D02*
X133700000Y-87693800D01*
X133700000Y-87693800D02*
X133642857Y-87636657D01*
X133642857Y-87636657D02*
X133614285Y-87522371D01*
X133614285Y-87522371D02*
X133614285Y-87322371D01*
X133614285Y-87322371D02*
X133642857Y-87208085D01*
X133642857Y-87208085D02*
X133700000Y-87150942D01*
X133700000Y-87150942D02*
X133757142Y-87122371D01*
X133757142Y-87122371D02*
X133871428Y-87122371D01*
X133871428Y-87122371D02*
X133928571Y-87150942D01*
X133928571Y-87150942D02*
X133985714Y-87208085D01*
X133985714Y-87208085D02*
X134014285Y-87322371D01*
X134014285Y-87322371D02*
X134014285Y-87522371D01*
X134014285Y-87522371D02*
X133985714Y-87636657D01*
X133985714Y-87636657D02*
X133928571Y-87693800D01*
X133928571Y-87693800D02*
X133871428Y-87722371D01*
X133871428Y-87722371D02*
X133757142Y-87722371D01*
X134242856Y-87179514D02*
X134271428Y-87150942D01*
X134271428Y-87150942D02*
X134328571Y-87122371D01*
X134328571Y-87122371D02*
X134471428Y-87122371D01*
X134471428Y-87122371D02*
X134528571Y-87150942D01*
X134528571Y-87150942D02*
X134557142Y-87179514D01*
X134557142Y-87179514D02*
X134585713Y-87236657D01*
X134585713Y-87236657D02*
X134585713Y-87293800D01*
X134585713Y-87293800D02*
X134557142Y-87379514D01*
X134557142Y-87379514D02*
X134214285Y-87722371D01*
X134214285Y-87722371D02*
X134585713Y-87722371D01*
X136390000Y-96555228D02*
X136361428Y-96583800D01*
X136361428Y-96583800D02*
X136275714Y-96612371D01*
X136275714Y-96612371D02*
X136218571Y-96612371D01*
X136218571Y-96612371D02*
X136132857Y-96583800D01*
X136132857Y-96583800D02*
X136075714Y-96526657D01*
X136075714Y-96526657D02*
X136047143Y-96469514D01*
X136047143Y-96469514D02*
X136018571Y-96355228D01*
X136018571Y-96355228D02*
X136018571Y-96269514D01*
X136018571Y-96269514D02*
X136047143Y-96155228D01*
X136047143Y-96155228D02*
X136075714Y-96098085D01*
X136075714Y-96098085D02*
X136132857Y-96040942D01*
X136132857Y-96040942D02*
X136218571Y-96012371D01*
X136218571Y-96012371D02*
X136275714Y-96012371D01*
X136275714Y-96012371D02*
X136361428Y-96040942D01*
X136361428Y-96040942D02*
X136390000Y-96069514D01*
X136961428Y-96612371D02*
X136618571Y-96612371D01*
X136790000Y-96612371D02*
X136790000Y-96012371D01*
X136790000Y-96012371D02*
X136732857Y-96098085D01*
X136732857Y-96098085D02*
X136675714Y-96155228D01*
X136675714Y-96155228D02*
X136618571Y-96183800D01*
D12*
X130440000Y-101020000D02*
X130440000Y-100220000D01*
X130440000Y-101020000D02*
X130440000Y-101820000D01*
X133560000Y-101020000D02*
X133560000Y-99220000D01*
X133560000Y-101020000D02*
X133560000Y-101820000D01*
X136485000Y-93870000D02*
X135485000Y-93870000D01*
X137485000Y-91650000D02*
X135485000Y-91650000D01*
X129162742Y-84577500D02*
X129637258Y-84577500D01*
X129162742Y-85622500D02*
X129637258Y-85622500D01*
X140875000Y-90695000D02*
X140875000Y-92980000D01*
X142345000Y-90695000D02*
X140875000Y-90695000D01*
X142345000Y-92980000D02*
X142345000Y-90695000D01*
X130520000Y-97550580D02*
X130520000Y-97269420D01*
X131540000Y-97550580D02*
X131540000Y-97269420D01*
D11*
X135320000Y-85275000D02*
X135670000Y-85275000D01*
X135320000Y-85750000D02*
X135320000Y-85275000D01*
X135320000Y-86925000D02*
X135320000Y-86475000D01*
X135545000Y-86925000D02*
X135670000Y-86925000D01*
X135620000Y-86925000D02*
X135320000Y-86925000D01*
X138295000Y-85275000D02*
X138295000Y-84500000D01*
X138345000Y-85275000D02*
X138295000Y-85275000D01*
X138620000Y-85650000D02*
X138345000Y-85275000D01*
X138620000Y-85925000D02*
X138620000Y-85650000D01*
X138620000Y-86550000D02*
X138620000Y-86925000D01*
X138620000Y-86925000D02*
X138320000Y-86925000D01*
D12*
X139247500Y-85527742D02*
X139247500Y-86002258D01*
X140292500Y-85527742D02*
X140292500Y-86002258D01*
X130397500Y-90587258D02*
X130397500Y-90112742D01*
X131442500Y-90587258D02*
X131442500Y-90112742D01*
X130397500Y-93737258D02*
X130397500Y-93262742D01*
X131442500Y-93737258D02*
X131442500Y-93262742D01*
X134090000Y-101350580D02*
X134090000Y-101069420D01*
X135110000Y-101350580D02*
X135110000Y-101069420D01*
X141057500Y-96617258D02*
X141057500Y-96142742D01*
X142102500Y-96617258D02*
X142102500Y-96142742D01*
D11*
X131250000Y-85275000D02*
X131600000Y-85275000D01*
X131250000Y-85750000D02*
X131250000Y-85275000D01*
X131250000Y-86925000D02*
X131250000Y-86475000D01*
X131475000Y-86925000D02*
X131600000Y-86925000D01*
X131550000Y-86925000D02*
X131250000Y-86925000D01*
X134225000Y-85275000D02*
X134225000Y-84500000D01*
X134275000Y-85275000D02*
X134225000Y-85275000D01*
X134550000Y-85650000D02*
X134275000Y-85275000D01*
X134550000Y-85925000D02*
X134550000Y-85650000D01*
X134550000Y-86550000D02*
X134550000Y-86925000D01*
X134550000Y-86925000D02*
X134250000Y-86925000D01*
D12*
X123020000Y-98160000D02*
X123020000Y-100160000D01*
X123020000Y-100160000D02*
X125020000Y-100160000D01*
X123310000Y-87250000D02*
X123310000Y-98834000D01*
X123310000Y-98834000D02*
X124246000Y-99870000D01*
X124246000Y-99870000D02*
X129280000Y-99870000D01*
X129280000Y-87250000D02*
X123310000Y-87250000D01*
X129280000Y-99870000D02*
X129280000Y-87250000D01*
X136630580Y-94400000D02*
X136349420Y-94400000D01*
X136630580Y-95420000D02*
X136349420Y-95420000D01*
%LPC*%
D13*
X141830000Y-85410000D03*
X124900000Y-101920000D03*
D14*
X132950000Y-99882500D03*
X132000000Y-99882500D03*
X131050000Y-99882500D03*
X131050000Y-102157500D03*
X132950000Y-102157500D03*
D15*
X137435000Y-93230000D03*
X137445000Y-92280000D03*
X135535000Y-92280000D03*
X135535000Y-93230000D03*
D16*
X136485000Y-92760000D03*
D17*
X128575000Y-85100000D03*
X130225000Y-85100000D03*
D18*
X141610000Y-91392500D03*
X141610000Y-92967500D03*
D19*
X131030000Y-98185000D03*
X131030000Y-96635000D03*
D20*
X137920000Y-85050000D03*
X136020000Y-85050000D03*
X136970000Y-87150000D03*
D21*
X139770000Y-84940000D03*
X139770000Y-86590000D03*
D22*
X130920000Y-91175000D03*
X130920000Y-89525000D03*
X130920000Y-94325000D03*
X130920000Y-92675000D03*
D19*
X134600000Y-101985000D03*
X134600000Y-100435000D03*
D22*
X141580000Y-97205000D03*
X141580000Y-95555000D03*
D20*
X133850000Y-85050000D03*
X131950000Y-85050000D03*
X132900000Y-87150000D03*
D23*
X125770000Y-97310000D03*
X125770000Y-94810000D03*
X125770000Y-92310000D03*
D24*
X125770000Y-89810000D03*
D25*
X137265000Y-94910000D03*
X135715000Y-94910000D03*
%LPD*%
M02*
