G04 #@! TF.GenerationSoftware,KiCad,Pcbnew,8.0.3*
G04 #@! TF.CreationDate,2024-07-19T17:45:39+03:00*
G04 #@! TF.ProjectId,B-TH09C-Brk-01Mbr-R01,422d5448-3039-4432-9d42-726b2d30314d,rev?*
G04 #@! TF.SameCoordinates,Original*
G04 #@! TF.FileFunction,Profile,NP*
%FSLAX46Y46*%
G04 Gerber Fmt 4.6, Leading zero omitted, Abs format (unit mm)*
G04 Created by KiCad (PCBNEW 8.0.3) date 2024-07-19 17:45:39*
%MOMM*%
%LPD*%
G01*
G04 APERTURE LIST*
G04 #@! TA.AperFunction,Profile*
%ADD10C,0.100000*%
G04 #@! TD*
G04 #@! TA.AperFunction,Profile*
%ADD11C,0.250000*%
G04 #@! TD*
G04 APERTURE END LIST*
D10*
X137329524Y-96777620D02*
X137333808Y-97713554D01*
X137573699Y-97947729D02*
X140379524Y-97947620D01*
D11*
X142789985Y-102275485D02*
X142789985Y-84844532D01*
D10*
X137329524Y-96777620D02*
G75*
G02*
X137563704Y-96537667I218076J21420D01*
G01*
D11*
X142620754Y-84646913D02*
G75*
G02*
X141703086Y-83729238I169246J1086913D01*
G01*
D10*
X137333540Y-89669891D02*
G75*
G02*
X137567716Y-89429987I218060J21391D01*
G01*
X137573699Y-97947729D02*
G75*
G02*
X137333819Y-97713555I-21399J218029D01*
G01*
X139074998Y-91067729D02*
X139074957Y-96299139D01*
X140365846Y-89430831D02*
G75*
G02*
X140611357Y-89661740I29254J-214869D01*
G01*
X140613699Y-97707729D02*
X140611429Y-92191745D01*
X135276258Y-89430000D02*
X132470433Y-89430109D01*
X132236258Y-89670000D02*
G75*
G02*
X132470433Y-89430105I218042J21400D01*
G01*
X138829415Y-90836815D02*
G75*
G02*
X139074978Y-91067728I29285J-214885D01*
G01*
D11*
X122789985Y-84844532D02*
X122789985Y-102275485D01*
D10*
X140365846Y-89430831D02*
X137567715Y-89430000D01*
X135276258Y-89430000D02*
G75*
G02*
X135516154Y-89664175I21442J-218000D01*
G01*
X140611429Y-92191745D02*
X140611429Y-89661745D01*
X133775000Y-91078590D02*
G75*
G02*
X134009171Y-90838751I218000J21390D01*
G01*
X135516417Y-97707838D02*
G75*
G02*
X135282239Y-97947774I-218017J-21462D01*
G01*
X135520433Y-90600109D02*
G75*
G02*
X135286259Y-90839984I-218033J-21391D01*
G01*
D11*
X142620754Y-84646913D02*
G75*
G02*
X142789966Y-84844532I-30754J-197587D01*
G01*
D10*
X140613699Y-97707729D02*
G75*
G02*
X140379529Y-97947546I-217999J-21371D01*
G01*
X133774959Y-96310000D02*
X133775000Y-91078590D01*
D11*
X141703081Y-103390778D02*
G75*
G02*
X142620751Y-102473085I1086919J-169222D01*
G01*
D10*
X137573590Y-90838987D02*
G75*
G02*
X137333765Y-90604817I-21390J217987D01*
G01*
D11*
X141505462Y-83560008D02*
X124074508Y-83560008D01*
D10*
X132236258Y-89670000D02*
X132238528Y-95185984D01*
D11*
X124074508Y-103560008D02*
G75*
G02*
X123876875Y-103390780I-8J200008D01*
G01*
X122789985Y-84844532D02*
G75*
G02*
X122959209Y-84646869I200015J32D01*
G01*
D10*
X135520433Y-90600109D02*
X135516149Y-89664175D01*
X134009175Y-90838699D02*
X135286258Y-90840000D01*
X132238528Y-95185984D02*
X132238527Y-97715984D01*
D11*
X123876889Y-83729239D02*
G75*
G02*
X122959213Y-84646893I-1086789J169139D01*
G01*
D10*
X134020542Y-96540914D02*
G75*
G02*
X133774996Y-96310003I-29242J214914D01*
G01*
X137333540Y-89669891D02*
X137333699Y-90604812D01*
D11*
X123876889Y-83729239D02*
G75*
G02*
X124074508Y-83560009I197611J-30761D01*
G01*
X141703081Y-103390778D02*
G75*
G02*
X141505462Y-103560048I-197581J30678D01*
G01*
D10*
X132484111Y-97946898D02*
X135282242Y-97947729D01*
X137573590Y-90838987D02*
X138829415Y-90836815D01*
D11*
X122959216Y-102473104D02*
G75*
G02*
X122789928Y-102275485I30684J197604D01*
G01*
D10*
X139074957Y-96299139D02*
G75*
G02*
X138840776Y-96539116I-218057J-21461D01*
G01*
X132484111Y-97946898D02*
G75*
G02*
X132238505Y-97715982I-29311J214898D01*
G01*
D11*
X141505462Y-83560008D02*
G75*
G02*
X141703111Y-83729234I38J-199992D01*
G01*
X122959216Y-102473104D02*
G75*
G02*
X123876895Y-103390777I-169216J-1086896D01*
G01*
D10*
X135276367Y-96538742D02*
X134020542Y-96540914D01*
D11*
X124074508Y-103560008D02*
X141505462Y-103560008D01*
D10*
X135516417Y-97707838D02*
X135516258Y-96772917D01*
D11*
X142789985Y-102275485D02*
G75*
G02*
X142620754Y-102473106I-199985J-15D01*
G01*
D10*
X135276367Y-96538742D02*
G75*
G02*
X135516315Y-96772921I21433J-218058D01*
G01*
X138840782Y-96539030D02*
X137563699Y-96537729D01*
M02*
